solid OpenSCAD_Model
  facet normal -2.22045e-16 0 1
    outer loop
      vertex -21.5595 13 18
      vertex -21.5595 -13 18
      vertex -19.3795 -13 18
    endloop
  endfacet
  facet normal -2.22045e-16 0 1
    outer loop
      vertex -19.3795 13 18
      vertex -21.5595 13 18
      vertex -19.3795 -13 18
    endloop
  endfacet
  facet normal -2.2174e-16 -0.052335 0.99863
    outer loop
      vertex -19.3795 -13 18
      vertex -21.5595 -13 18
      vertex -21.5595 -13.3136 17.9836
    endloop
  endfacet
  facet normal -2.2174e-16 -0.052335 0.99863
    outer loop
      vertex -19.3795 -13.075 17.9961
      vertex -19.3795 -13 18
      vertex -21.5595 -13.3136 17.9836
    endloop
  endfacet
  facet normal -2.2174e-16 -0.052335 0.99863
    outer loop
      vertex 0.0005 -13 18
      vertex -2.8195 -13 18
      vertex 0.0005 -13.3136 17.9836
    endloop
  endfacet
  facet normal -2.2174e-16 -0.052335 0.99863
    outer loop
      vertex -2.8195 -13 18
      vertex -2.8195 -13.075 17.9961
      vertex 0.0005 -13.3136 17.9836
    endloop
  endfacet
  facet normal -2.2174e-16 -0.052335 0.99863
    outer loop
      vertex -7.4595 -13 18
      vertex -7.4595 -13.075 17.9961
      vertex -5.4595 -13.075 17.9961
    endloop
  endfacet
  facet normal -2.2174e-16 -0.052335 0.99863
    outer loop
      vertex -2.8195 -13.075 17.9961
      vertex -5.4595 -13.075 17.9961
      vertex 0.0005 -13.3136 17.9836
    endloop
  endfacet
  facet normal -2.2174e-16 -0.052335 0.99863
    outer loop
      vertex -12.0995 -13 18
      vertex -12.0995 -13.075 17.9961
      vertex -10.0995 -13.075 17.9961
    endloop
  endfacet
  facet normal -2.2174e-16 -0.052335 0.99863
    outer loop
      vertex -5.4595 -13.075 17.9961
      vertex -7.4595 -13.075 17.9961
      vertex 0.0005 -13.3136 17.9836
    endloop
  endfacet
  facet normal -2.2174e-16 -0.052335 0.99863
    outer loop
      vertex -7.4595 -13.075 17.9961
      vertex -10.0995 -13.075 17.9961
      vertex 0.0005 -13.3136 17.9836
    endloop
  endfacet
  facet normal -2.2174e-16 -0.052335 0.99863
    outer loop
      vertex -10.0995 -13.075 17.9961
      vertex -12.0995 -13.075 17.9961
      vertex 0.0005 -13.3136 17.9836
    endloop
  endfacet
  facet normal -2.2174e-16 -0.052335 0.99863
    outer loop
      vertex -12.0995 -13.075 17.9961
      vertex -14.7395 -13.075 17.9961
      vertex 0.0005 -13.3136 17.9836
    endloop
  endfacet
  facet normal -2.2174e-16 -0.052335 0.99863
    outer loop
      vertex -16.7395 -13 18
      vertex -16.7395 -13.075 17.9961
      vertex -14.7395 -13.075 17.9961
    endloop
  endfacet
  facet normal -2.2174e-16 -0.052335 0.99863
    outer loop
      vertex -14.7395 -13.075 17.9961
      vertex -16.7395 -13.075 17.9961
      vertex 0.0005 -13.3136 17.9836
    endloop
  endfacet
  facet normal -2.2174e-16 -0.052335 0.99863
    outer loop
      vertex 0.0005 -13.3136 17.9836
      vertex -16.7395 -13.075 17.9961
      vertex -21.5595 -13.3136 17.9836
    endloop
  endfacet
  facet normal -2.2174e-16 -0.052335 0.99863
    outer loop
      vertex -16.7395 -13.075 17.9961
      vertex -19.3795 -13.075 17.9961
      vertex -21.5595 -13.3136 17.9836
    endloop
  endfacet
  facet normal -2.2174e-16 -0.052335 0.99863
    outer loop
      vertex -14.7395 -13.075 17.9961
      vertex -14.7395 -13 18
      vertex -16.7395 -13 18
    endloop
  endfacet
  facet normal -2.2174e-16 -0.052335 0.99863
    outer loop
      vertex -10.0995 -13.075 17.9961
      vertex -10.0995 -13 18
      vertex -12.0995 -13 18
    endloop
  endfacet
  facet normal -2.2174e-16 -0.052335 0.99863
    outer loop
      vertex -5.4595 -13.075 17.9961
      vertex -5.4595 -13 18
      vertex -7.4595 -13 18
    endloop
  endfacet
  facet normal -1 0 -2.22045e-16
    outer loop
      vertex -21.5595 -13 18
      vertex -21.5595 13 18
      vertex -21.5595 -13.3136 17.9836
    endloop
  endfacet
  facet normal -1 0 -2.22045e-16
    outer loop
      vertex -21.5595 -13.3136 17.9836
      vertex -21.5595 13 18
      vertex -21.5595 13.3136 17.9836
    endloop
  endfacet
  facet normal -1 0 -2.22045e-16
    outer loop
      vertex -21.5595 -13.3136 17.9836
      vertex -21.5595 13.3136 17.9836
      vertex -21.5595 13.6237 17.9344
    endloop
  endfacet
  facet normal -1 0 -2.22045e-16
    outer loop
      vertex -21.5595 -13.3136 17.9836
      vertex -21.5595 13.6237 17.9344
      vertex -21.5595 13.9271 17.8532
    endloop
  endfacet
  facet normal -1 0 -2.22045e-16
    outer loop
      vertex -21.5595 -13.3136 17.9836
      vertex -21.5595 13.9271 17.8532
      vertex -21.5595 14.2202 17.7406
    endloop
  endfacet
  facet normal -1 0 -2.22045e-16
    outer loop
      vertex -21.5595 -13.3136 17.9836
      vertex -21.5595 14.2202 17.7406
      vertex -21.5595 14.5 17.5981
    endloop
  endfacet
  facet normal -1 0 -2.22045e-16
    outer loop
      vertex -21.5595 -13.3136 17.9836
      vertex -21.5595 14.5 17.5981
      vertex -21.5595 14.7634 17.4271
    endloop
  endfacet
  facet normal -1 0 -2.22045e-16
    outer loop
      vertex -21.5595 -13.3136 17.9836
      vertex -21.5595 14.7634 17.4271
      vertex -21.5595 15.0074 17.2294
    endloop
  endfacet
  facet normal -1 0 -2.22045e-16
    outer loop
      vertex -21.5595 -13.3136 17.9836
      vertex -21.5595 15.0074 17.2294
      vertex -21.5595 15.2294 17.0074
    endloop
  endfacet
  facet normal -1 0 -2.22045e-16
    outer loop
      vertex -21.5595 -13.3136 17.9836
      vertex -21.5595 15.2294 17.0074
      vertex -21.5595 15.4271 16.7634
    endloop
  endfacet
  facet normal -1 0 -2.22045e-16
    outer loop
      vertex -21.5595 -13.3136 17.9836
      vertex -21.5595 15.4271 16.7634
      vertex -21.5595 15.5981 16.5
    endloop
  endfacet
  facet normal -1 0 -2.22045e-16
    outer loop
      vertex -21.5595 -13.3136 17.9836
      vertex -21.5595 15.5981 16.5
      vertex -21.5595 15.7406 16.2202
    endloop
  endfacet
  facet normal -1 0 -2.22045e-16
    outer loop
      vertex -21.5595 -13.3136 17.9836
      vertex -21.5595 15.7406 16.2202
      vertex -21.5595 15.8532 15.9271
    endloop
  endfacet
  facet normal -1 0 -2.22045e-16
    outer loop
      vertex -21.5595 -13.3136 17.9836
      vertex -21.5595 15.8532 15.9271
      vertex -21.5595 15.9344 15.6237
    endloop
  endfacet
  facet normal -1 0 -2.22045e-16
    outer loop
      vertex -21.5595 -13.3136 17.9836
      vertex -21.5595 15.9344 15.6237
      vertex -21.5595 15.9836 15.3136
    endloop
  endfacet
  facet normal -1 0 -2.22045e-16
    outer loop
      vertex -21.5595 -13.3136 17.9836
      vertex -21.5595 15.9836 15.3136
      vertex -21.5595 16 15
    endloop
  endfacet
  facet normal -1 0 -2.22045e-16
    outer loop
      vertex -21.5595 -13.3136 17.9836
      vertex -21.5595 16 15
      vertex -21.5595 16 0
    endloop
  endfacet
  facet normal -1 0 -2.22045e-16
    outer loop
      vertex -21.5595 -13.3136 17.9836
      vertex -21.5595 16 0
      vertex -21.5595 -16 0
    endloop
  endfacet
  facet normal -1 0 -2.22045e-16
    outer loop
      vertex -21.5595 -13.3136 17.9836
      vertex -21.5595 -16 0
      vertex -21.5595 -16 15
    endloop
  endfacet
  facet normal -1 0 -2.22045e-16
    outer loop
      vertex -21.5595 -13.3136 17.9836
      vertex -21.5595 -16 15
      vertex -21.5595 -15.9836 15.3136
    endloop
  endfacet
  facet normal -1 0 -2.22045e-16
    outer loop
      vertex -21.5595 -13.3136 17.9836
      vertex -21.5595 -15.9836 15.3136
      vertex -21.5595 -15.9344 15.6237
    endloop
  endfacet
  facet normal -1 0 -2.22045e-16
    outer loop
      vertex -21.5595 -13.3136 17.9836
      vertex -21.5595 -15.9344 15.6237
      vertex -21.5595 -15.8532 15.9271
    endloop
  endfacet
  facet normal -1 0 -2.22045e-16
    outer loop
      vertex -21.5595 -13.3136 17.9836
      vertex -21.5595 -15.8532 15.9271
      vertex -21.5595 -15.7406 16.2202
    endloop
  endfacet
  facet normal -1 0 -2.22045e-16
    outer loop
      vertex -21.5595 -13.3136 17.9836
      vertex -21.5595 -15.7406 16.2202
      vertex -21.5595 -15.5981 16.5
    endloop
  endfacet
  facet normal -1 0 -2.22045e-16
    outer loop
      vertex -21.5595 -13.3136 17.9836
      vertex -21.5595 -15.5981 16.5
      vertex -21.5595 -15.4271 16.7634
    endloop
  endfacet
  facet normal -1 0 -2.22045e-16
    outer loop
      vertex -21.5595 -13.3136 17.9836
      vertex -21.5595 -15.4271 16.7634
      vertex -21.5595 -15.2294 17.0074
    endloop
  endfacet
  facet normal -1 0 -2.22045e-16
    outer loop
      vertex -21.5595 -13.3136 17.9836
      vertex -21.5595 -15.2294 17.0074
      vertex -21.5595 -15.0074 17.2294
    endloop
  endfacet
  facet normal -1 0 -2.22045e-16
    outer loop
      vertex -21.5595 -13.3136 17.9836
      vertex -21.5595 -15.0074 17.2294
      vertex -21.5595 -14.7634 17.4271
    endloop
  endfacet
  facet normal -1 0 -2.22045e-16
    outer loop
      vertex -21.5595 -13.3136 17.9836
      vertex -21.5595 -14.7634 17.4271
      vertex -21.5595 -14.5 17.5981
    endloop
  endfacet
  facet normal -1 0 -2.22045e-16
    outer loop
      vertex -21.5595 -13.3136 17.9836
      vertex -21.5595 -14.5 17.5981
      vertex -21.5595 -14.2202 17.7406
    endloop
  endfacet
  facet normal -1 0 -2.22045e-16
    outer loop
      vertex -21.5595 -13.3136 17.9836
      vertex -21.5595 -14.2202 17.7406
      vertex -21.5595 -13.9271 17.8532
    endloop
  endfacet
  facet normal -1 0 -2.22045e-16
    outer loop
      vertex -21.5595 -13.3136 17.9836
      vertex -21.5595 -13.9271 17.8532
      vertex -21.5595 -13.6237 17.9344
    endloop
  endfacet
  facet normal -2.2174e-16 0.052335 0.99863
    outer loop
      vertex -21.5595 13.3136 17.9836
      vertex -21.5595 13 18
      vertex -19.3795 13 18
    endloop
  endfacet
  facet normal -2.2174e-16 0.052335 0.99863
    outer loop
      vertex -16.7395 13.075 17.9961
      vertex -21.5595 13.3136 17.9836
      vertex -19.3795 13.075 17.9961
    endloop
  endfacet
  facet normal -2.2174e-16 0.052335 0.99863
    outer loop
      vertex -19.3795 13.075 17.9961
      vertex -21.5595 13.3136 17.9836
      vertex -19.3795 13 18
    endloop
  endfacet
  facet normal -2.2174e-16 0.052335 0.99863
    outer loop
      vertex -14.7395 13 18
      vertex -21.5595 13.3136 17.9836
      vertex -16.7395 13.075 17.9961
    endloop
  endfacet
  facet normal -2.2174e-16 0.052335 0.99863
    outer loop
      vertex -14.7395 13 18
      vertex -16.7395 13.075 17.9961
      vertex -16.7395 13 18
    endloop
  endfacet
  facet normal -2.2174e-16 0.052335 0.99863
    outer loop
      vertex -14.7395 13.075 17.9961
      vertex -21.5595 13.3136 17.9836
      vertex -14.7395 13 18
    endloop
  endfacet
  facet normal -2.2174e-16 0.052335 0.99863
    outer loop
      vertex -12.0995 13.075 17.9961
      vertex -21.5595 13.3136 17.9836
      vertex -14.7395 13.075 17.9961
    endloop
  endfacet
  facet normal -2.2174e-16 0.052335 0.99863
    outer loop
      vertex -10.0995 13.075 17.9961
      vertex -21.5595 13.3136 17.9836
      vertex -12.0995 13.075 17.9961
    endloop
  endfacet
  facet normal -2.2174e-16 0.052335 0.99863
    outer loop
      vertex -10.0995 13 18
      vertex -12.0995 13.075 17.9961
      vertex -12.0995 13 18
    endloop
  endfacet
  facet normal -2.2174e-16 0.052335 0.99863
    outer loop
      vertex -10.0995 13.075 17.9961
      vertex -12.0995 13.075 17.9961
      vertex -10.0995 13 18
    endloop
  endfacet
  facet normal -2.2174e-16 0.052335 0.99863
    outer loop
      vertex -7.4595 13.075 17.9961
      vertex -21.5595 13.3136 17.9836
      vertex -10.0995 13.075 17.9961
    endloop
  endfacet
  facet normal -2.2174e-16 0.052335 0.99863
    outer loop
      vertex -5.4595 13.075 17.9961
      vertex -21.5595 13.3136 17.9836
      vertex -7.4595 13.075 17.9961
    endloop
  endfacet
  facet normal -2.2174e-16 0.052335 0.99863
    outer loop
      vertex -5.4595 13 18
      vertex -7.4595 13.075 17.9961
      vertex -7.4595 13 18
    endloop
  endfacet
  facet normal -2.2174e-16 0.052335 0.99863
    outer loop
      vertex -5.4595 13.075 17.9961
      vertex -7.4595 13.075 17.9961
      vertex -5.4595 13 18
    endloop
  endfacet
  facet normal -2.2174e-16 0.052335 0.99863
    outer loop
      vertex -2.8195 13.075 17.9961
      vertex -21.5595 13.3136 17.9836
      vertex -5.4595 13.075 17.9961
    endloop
  endfacet
  facet normal -2.2174e-16 0.052335 0.99863
    outer loop
      vertex 0.0005 13.3136 17.9836
      vertex -21.5595 13.3136 17.9836
      vertex -2.8195 13.075 17.9961
    endloop
  endfacet
  facet normal -2.2174e-16 0.052335 0.99863
    outer loop
      vertex 0.0005 13 18
      vertex -2.8195 13.075 17.9961
      vertex -2.8195 13 18
    endloop
  endfacet
  facet normal -2.2174e-16 0.052335 0.99863
    outer loop
      vertex 0.0005 13.3136 17.9836
      vertex -2.8195 13.075 17.9961
      vertex 0.0005 13 18
    endloop
  endfacet
  facet normal 1 0 0
    outer loop
      vertex -19.3795 13.075 2.5
      vertex -19.3795 13.075 17.9961
      vertex -19.3795 13 18
    endloop
  endfacet
  facet normal 1 0 0
    outer loop
      vertex -19.3795 -13.075 17.9961
      vertex -19.3795 13.075 2.5
      vertex -19.3795 -13 18
    endloop
  endfacet
  facet normal 1 0 0
    outer loop
      vertex -19.3795 -13 18
      vertex -19.3795 13.075 2.5
      vertex -19.3795 13 18
    endloop
  endfacet
  facet normal 1 0 0
    outer loop
      vertex -19.3795 -13.075 2.5
      vertex -19.3795 13.075 2.5
      vertex -19.3795 -13.075 17.9961
    endloop
  endfacet
  facet normal 0 1 0
    outer loop
      vertex -16.7395 -13.075 17.9961
      vertex -16.7395 -13.075 2.5
      vertex -19.3795 -13.075 17.9961
    endloop
  endfacet
  facet normal 0 1 0
    outer loop
      vertex -19.3795 -13.075 17.9961
      vertex -16.7395 -13.075 2.5
      vertex -19.3795 -13.075 2.5
    endloop
  endfacet
  facet normal -1 0 0
    outer loop
      vertex -16.7395 -13 18
      vertex -16.7395 13 18
      vertex -16.7395 -13.075 17.9961
    endloop
  endfacet
  facet normal -1 0 0
    outer loop
      vertex -16.7395 -13.075 17.9961
      vertex -16.7395 13 18
      vertex -16.7395 13.075 17.9961
    endloop
  endfacet
  facet normal -1 0 0
    outer loop
      vertex -16.7395 -13.075 17.9961
      vertex -16.7395 13.075 17.9961
      vertex -16.7395 13.075 2.5
    endloop
  endfacet
  facet normal -1 0 0
    outer loop
      vertex -16.7395 -13.075 17.9961
      vertex -16.7395 13.075 2.5
      vertex -16.7395 -13.075 2.5
    endloop
  endfacet
  facet normal -2.22045e-16 0 1
    outer loop
      vertex -16.7395 13 18
      vertex -16.7395 -13 18
      vertex -14.7395 -13 18
    endloop
  endfacet
  facet normal -2.22045e-16 0 1
    outer loop
      vertex -14.7395 13 18
      vertex -16.7395 13 18
      vertex -14.7395 -13 18
    endloop
  endfacet
  facet normal 1 0 0
    outer loop
      vertex -14.7395 13.075 2.5
      vertex -14.7395 13.075 17.9961
      vertex -14.7395 13 18
    endloop
  endfacet
  facet normal 1 0 0
    outer loop
      vertex -14.7395 -13.075 17.9961
      vertex -14.7395 13.075 2.5
      vertex -14.7395 -13 18
    endloop
  endfacet
  facet normal 1 0 0
    outer loop
      vertex -14.7395 -13 18
      vertex -14.7395 13.075 2.5
      vertex -14.7395 13 18
    endloop
  endfacet
  facet normal 1 0 0
    outer loop
      vertex -14.7395 -13.075 2.5
      vertex -14.7395 13.075 2.5
      vertex -14.7395 -13.075 17.9961
    endloop
  endfacet
  facet normal 0 1 0
    outer loop
      vertex -12.0995 -13.075 17.9961
      vertex -12.0995 -13.075 2.5
      vertex -14.7395 -13.075 17.9961
    endloop
  endfacet
  facet normal 0 1 0
    outer loop
      vertex -14.7395 -13.075 17.9961
      vertex -12.0995 -13.075 2.5
      vertex -14.7395 -13.075 2.5
    endloop
  endfacet
  facet normal -1 0 0
    outer loop
      vertex -12.0995 -13 18
      vertex -12.0995 13 18
      vertex -12.0995 -13.075 17.9961
    endloop
  endfacet
  facet normal -1 0 0
    outer loop
      vertex -12.0995 -13.075 17.9961
      vertex -12.0995 13 18
      vertex -12.0995 13.075 17.9961
    endloop
  endfacet
  facet normal -1 0 0
    outer loop
      vertex -12.0995 -13.075 17.9961
      vertex -12.0995 13.075 17.9961
      vertex -12.0995 13.075 2.5
    endloop
  endfacet
  facet normal -1 0 0
    outer loop
      vertex -12.0995 -13.075 17.9961
      vertex -12.0995 13.075 2.5
      vertex -12.0995 -13.075 2.5
    endloop
  endfacet
  facet normal -2.22045e-16 0 1
    outer loop
      vertex -12.0995 13 18
      vertex -12.0995 -13 18
      vertex -10.0995 -13 18
    endloop
  endfacet
  facet normal -2.22045e-16 0 1
    outer loop
      vertex -10.0995 13 18
      vertex -12.0995 13 18
      vertex -10.0995 -13 18
    endloop
  endfacet
  facet normal 1 0 0
    outer loop
      vertex -10.0995 13.075 2.5
      vertex -10.0995 13.075 17.9961
      vertex -10.0995 13 18
    endloop
  endfacet
  facet normal 1 0 0
    outer loop
      vertex -10.0995 -13.075 17.9961
      vertex -10.0995 13.075 2.5
      vertex -10.0995 -13 18
    endloop
  endfacet
  facet normal 1 0 0
    outer loop
      vertex -10.0995 -13 18
      vertex -10.0995 13.075 2.5
      vertex -10.0995 13 18
    endloop
  endfacet
  facet normal 1 0 0
    outer loop
      vertex -10.0995 -13.075 2.5
      vertex -10.0995 13.075 2.5
      vertex -10.0995 -13.075 17.9961
    endloop
  endfacet
  facet normal 0 1 0
    outer loop
      vertex -7.4595 -13.075 17.9961
      vertex -7.4595 -13.075 2.5
      vertex -10.0995 -13.075 17.9961
    endloop
  endfacet
  facet normal 0 1 0
    outer loop
      vertex -10.0995 -13.075 17.9961
      vertex -7.4595 -13.075 2.5
      vertex -10.0995 -13.075 2.5
    endloop
  endfacet
  facet normal -1 0 0
    outer loop
      vertex -7.4595 -13 18
      vertex -7.4595 13 18
      vertex -7.4595 -13.075 17.9961
    endloop
  endfacet
  facet normal -1 0 0
    outer loop
      vertex -7.4595 -13.075 17.9961
      vertex -7.4595 13 18
      vertex -7.4595 13.075 17.9961
    endloop
  endfacet
  facet normal -1 0 0
    outer loop
      vertex -7.4595 -13.075 17.9961
      vertex -7.4595 13.075 17.9961
      vertex -7.4595 13.075 2.5
    endloop
  endfacet
  facet normal -1 0 0
    outer loop
      vertex -7.4595 -13.075 17.9961
      vertex -7.4595 13.075 2.5
      vertex -7.4595 -13.075 2.5
    endloop
  endfacet
  facet normal -2.22045e-16 0 1
    outer loop
      vertex -7.4595 13 18
      vertex -7.4595 -13 18
      vertex -5.4595 -13 18
    endloop
  endfacet
  facet normal -2.22045e-16 0 1
    outer loop
      vertex -5.4595 13 18
      vertex -7.4595 13 18
      vertex -5.4595 -13 18
    endloop
  endfacet
  facet normal 1 0 0
    outer loop
      vertex -5.4595 13.075 2.5
      vertex -5.4595 13.075 17.9961
      vertex -5.4595 13 18
    endloop
  endfacet
  facet normal 1 0 0
    outer loop
      vertex -5.4595 -13.075 17.9961
      vertex -5.4595 13.075 2.5
      vertex -5.4595 -13 18
    endloop
  endfacet
  facet normal 1 0 0
    outer loop
      vertex -5.4595 -13 18
      vertex -5.4595 13.075 2.5
      vertex -5.4595 13 18
    endloop
  endfacet
  facet normal 1 0 0
    outer loop
      vertex -5.4595 -13.075 2.5
      vertex -5.4595 13.075 2.5
      vertex -5.4595 -13.075 17.9961
    endloop
  endfacet
  facet normal 0 1 0
    outer loop
      vertex -2.8195 -13.075 17.9961
      vertex -2.8195 -13.075 2.5
      vertex -5.4595 -13.075 17.9961
    endloop
  endfacet
  facet normal 0 1 0
    outer loop
      vertex -5.4595 -13.075 17.9961
      vertex -2.8195 -13.075 2.5
      vertex -5.4595 -13.075 2.5
    endloop
  endfacet
  facet normal -1 0 0
    outer loop
      vertex -2.8195 -13 18
      vertex -2.8195 13 18
      vertex -2.8195 -13.075 17.9961
    endloop
  endfacet
  facet normal -1 0 0
    outer loop
      vertex -2.8195 -13.075 17.9961
      vertex -2.8195 13 18
      vertex -2.8195 13.075 17.9961
    endloop
  endfacet
  facet normal -1 0 0
    outer loop
      vertex -2.8195 -13.075 17.9961
      vertex -2.8195 13.075 17.9961
      vertex -2.8195 13.075 2.5
    endloop
  endfacet
  facet normal -1 0 0
    outer loop
      vertex -2.8195 -13.075 17.9961
      vertex -2.8195 13.075 2.5
      vertex -2.8195 -13.075 2.5
    endloop
  endfacet
  facet normal -2.22045e-16 0 1
    outer loop
      vertex -2.8195 13 18
      vertex -2.8195 -13 18
      vertex 0.0005 -13 18
    endloop
  endfacet
  facet normal -2.22045e-16 0 1
    outer loop
      vertex -0.0005 -3.39081 18
      vertex -2.8195 13 18
      vertex 0.0005 -13 18
    endloop
  endfacet
  facet normal -2.22045e-16 0 1
    outer loop
      vertex 0.0005 -3.39081 18
      vertex -0.0005 -3.39081 18
      vertex 0.0005 -13 18
    endloop
  endfacet
  facet normal -2.22045e-16 0 1
    outer loop
      vertex 0.0005 -3.2 18
      vertex -2.8195 13 18
      vertex -0.0005 -3.2 18
    endloop
  endfacet
  facet normal -2.22045e-16 0 1
    outer loop
      vertex 0.0005 13 18
      vertex -2.8195 13 18
      vertex 0.0005 -3.2 18
    endloop
  endfacet
  facet normal -2.22045e-16 0 1
    outer loop
      vertex -0.0005 -3.39081 18
      vertex -0.0005 -3.2 18
      vertex -2.8195 13 18
    endloop
  endfacet
  facet normal 1 0 2.22045e-16
    outer loop
      vertex 0.0005 -3.39081 18
      vertex 0.0005 -13 18
      vertex 0.0005 -13.3136 17.9836
    endloop
  endfacet
  facet normal 1 0 2.22045e-16
    outer loop
      vertex 0.0005 -13.9271 17.8532
      vertex 0.0005 -3.39081 18
      vertex 0.0005 -13.6237 17.9344
    endloop
  endfacet
  facet normal 1 0 2.22045e-16
    outer loop
      vertex 0.0005 -13.6237 17.9344
      vertex 0.0005 -3.39081 18
      vertex 0.0005 -13.3136 17.9836
    endloop
  endfacet
  facet normal 1 0 2.22045e-16
    outer loop
      vertex 0.0005 -14.2202 17.7406
      vertex 0.0005 -3.39081 18
      vertex 0.0005 -13.9271 17.8532
    endloop
  endfacet
  facet normal 1 0 2.22045e-16
    outer loop
      vertex 0.0005 -14.5 17.5981
      vertex 0.0005 -3.39081 18
      vertex 0.0005 -14.2202 17.7406
    endloop
  endfacet
  facet normal 1 0 2.22045e-16
    outer loop
      vertex 0.0005 -14.7634 17.4271
      vertex 0.0005 -3.39081 18
      vertex 0.0005 -14.5 17.5981
    endloop
  endfacet
  facet normal 1 0 2.22045e-16
    outer loop
      vertex 0.0005 -3.59721 17.9892
      vertex 0.0005 -3.39081 18
      vertex 0.0005 -14.7634 17.4271
    endloop
  endfacet
  facet normal 1 0 2.22045e-16
    outer loop
      vertex 0.0005 -3.99006 17.927
      vertex 0.0005 -15.2294 17.0074
      vertex 0.0005 -15.4271 16.7634
    endloop
  endfacet
  facet normal 1 0 2.22045e-16
    outer loop
      vertex 0.0005 -3.99006 17.927
      vertex 0.0005 -15.0074 17.2294
      vertex 0.0005 -15.2294 17.0074
    endloop
  endfacet
  facet normal 1 0 2.22045e-16
    outer loop
      vertex 0.0005 -3.99006 17.927
      vertex 0.0005 -3.59721 17.9892
      vertex 0.0005 -15.0074 17.2294
    endloop
  endfacet
  facet normal 1 0 2.22045e-16
    outer loop
      vertex 0.0005 -4.37426 17.824
      vertex 0.0005 -15.7406 16.2202
      vertex 0.0005 -15.8532 15.9271
    endloop
  endfacet
  facet normal 1 0 2.22045e-16
    outer loop
      vertex 0.0005 -4.37426 17.824
      vertex 0.0005 -15.5981 16.5
      vertex 0.0005 -15.7406 16.2202
    endloop
  endfacet
  facet normal 1 0 2.22045e-16
    outer loop
      vertex 0.0005 -4.7456 17.6815
      vertex 0.0005 -15.9344 15.6237
      vertex 0.0005 -15.9836 15.3136
    endloop
  endfacet
  facet normal 1 0 2.22045e-16
    outer loop
      vertex 0.0005 -5.1 17.5009
      vertex 0.0005 -4.7456 17.6815
      vertex 0.0005 -16 15
    endloop
  endfacet
  facet normal 1 0 2.22045e-16
    outer loop
      vertex 0.0005 -4.7456 17.6815
      vertex 0.0005 -4.37426 17.824
      vertex 0.0005 -15.9344 15.6237
    endloop
  endfacet
  facet normal 1 0 2.22045e-16
    outer loop
      vertex 0.0005 -16 5.37258
      vertex 0.0005 -6.97918 14.6072
      vertex 0.0005 -16 15
    endloop
  endfacet
  facet normal 1 0 2.22045e-16
    outer loop
      vertex 0.0005 -6.97918 14.6072
      vertex 0.0005 -6.91696 15.0001
      vertex 0.0005 -16 15
    endloop
  endfacet
  facet normal 1 0 2.22045e-16
    outer loop
      vertex 0.0005 -6.91696 15.0001
      vertex 0.0005 -6.81401 15.3843
      vertex 0.0005 -16 15
    endloop
  endfacet
  facet normal 1 0 2.22045e-16
    outer loop
      vertex 0.0005 -6.81401 15.3843
      vertex 0.0005 -6.67147 15.7556
      vertex 0.0005 -16 15
    endloop
  endfacet
  facet normal 1 0 2.22045e-16
    outer loop
      vertex 0.0005 -6.67147 15.7556
      vertex 0.0005 -6.4909 16.11
      vertex 0.0005 -16 15
    endloop
  endfacet
  facet normal 1 0 2.22045e-16
    outer loop
      vertex 0.0005 -6.4909 16.11
      vertex 0.0005 -6.27426 16.4436
      vertex 0.0005 -16 15
    endloop
  endfacet
  facet normal 1 0 2.22045e-16
    outer loop
      vertex 0.0005 -6.27426 16.4436
      vertex 0.0005 -6.02395 16.7527
      vertex 0.0005 -16 15
    endloop
  endfacet
  facet normal 1 0 2.22045e-16
    outer loop
      vertex 0.0005 -6.02395 16.7527
      vertex 0.0005 -5.7427 17.0339
      vertex 0.0005 -16 15
    endloop
  endfacet
  facet normal 1 0 2.22045e-16
    outer loop
      vertex 0.0005 -5.7427 17.0339
      vertex 0.0005 -5.43358 17.2843
      vertex 0.0005 -16 15
    endloop
  endfacet
  facet normal 1 0 2.22045e-16
    outer loop
      vertex 0.0005 -5.43358 17.2843
      vertex 0.0005 -5.1 17.5009
      vertex 0.0005 -16 15
    endloop
  endfacet
  facet normal 1 0 2.22045e-16
    outer loop
      vertex 0.0005 -16 15
      vertex 0.0005 -4.7456 17.6815
      vertex 0.0005 -15.9836 15.3136
    endloop
  endfacet
  facet normal 1 0 2.22045e-16
    outer loop
      vertex 0.0005 -15.9344 15.6237
      vertex 0.0005 -4.37426 17.824
      vertex 0.0005 -15.8532 15.9271
    endloop
  endfacet
  facet normal 1 0 2.22045e-16
    outer loop
      vertex 0.0005 -15.5981 16.5
      vertex 0.0005 -3.99006 17.927
      vertex 0.0005 -15.4271 16.7634
    endloop
  endfacet
  facet normal 1 0 2.22045e-16
    outer loop
      vertex 0.0005 -15.0074 17.2294
      vertex 0.0005 -3.59721 17.9892
      vertex 0.0005 -14.7634 17.4271
    endloop
  endfacet
  facet normal 1 0 2.22045e-16
    outer loop
      vertex 0.0005 -6.99101 14.3816
      vertex 0.0005 -6.97918 14.6072
      vertex 0.0005 -16 5.37258
    endloop
  endfacet
  facet normal 1 0 2.22045e-16
    outer loop
      vertex 0.0005 -4.37426 17.824
      vertex 0.0005 -3.99006 17.927
      vertex 0.0005 -15.5981 16.5
    endloop
  endfacet
  facet normal -2.19311e-16 -0.156435 0.987688
    outer loop
      vertex 0.0005 -13.3136 17.9836
      vertex -21.5595 -13.3136 17.9836
      vertex -21.5595 -13.6237 17.9344
    endloop
  endfacet
  facet normal -2.19311e-16 -0.156435 0.987688
    outer loop
      vertex 0.0005 -13.6237 17.9344
      vertex 0.0005 -13.3136 17.9836
      vertex -21.5595 -13.6237 17.9344
    endloop
  endfacet
  facet normal -2.14479e-16 -0.258818 0.965926
    outer loop
      vertex 0.0005 -13.6237 17.9344
      vertex -21.5595 -13.6237 17.9344
      vertex -21.5595 -13.9271 17.8532
    endloop
  endfacet
  facet normal -2.14479e-16 -0.258818 0.965926
    outer loop
      vertex 0.0005 -13.9271 17.8532
      vertex 0.0005 -13.6237 17.9344
      vertex -21.5595 -13.9271 17.8532
    endloop
  endfacet
  facet normal -2.07296e-16 -0.35837 0.93358
    outer loop
      vertex 0.0005 -13.9271 17.8532
      vertex -21.5595 -13.9271 17.8532
      vertex -21.5595 -14.2202 17.7406
    endloop
  endfacet
  facet normal -2.07296e-16 -0.35837 0.93358
    outer loop
      vertex 0.0005 -14.2202 17.7406
      vertex 0.0005 -13.9271 17.8532
      vertex -21.5595 -14.2202 17.7406
    endloop
  endfacet
  facet normal -1.97843e-16 -0.45399 0.891007
    outer loop
      vertex 0.0005 -14.2202 17.7406
      vertex -21.5595 -14.2202 17.7406
      vertex -21.5595 -14.5 17.5981
    endloop
  endfacet
  facet normal -1.97843e-16 -0.45399 0.891007
    outer loop
      vertex 0.0005 -14.5 17.5981
      vertex 0.0005 -14.2202 17.7406
      vertex -21.5595 -14.5 17.5981
    endloop
  endfacet
  facet normal -1.86222e-16 -0.544638 0.838671
    outer loop
      vertex 0.0005 -14.5 17.5981
      vertex -21.5595 -14.5 17.5981
      vertex -21.5595 -14.7634 17.4271
    endloop
  endfacet
  facet normal -1.86222e-16 -0.544638 0.838671
    outer loop
      vertex 0.0005 -14.7634 17.4271
      vertex 0.0005 -14.5 17.5981
      vertex -21.5595 -14.7634 17.4271
    endloop
  endfacet
  facet normal -1.72561e-16 -0.629321 0.777145
    outer loop
      vertex 0.0005 -14.7634 17.4271
      vertex -21.5595 -14.7634 17.4271
      vertex -21.5595 -15.0074 17.2294
    endloop
  endfacet
  facet normal -1.72561e-16 -0.629321 0.777145
    outer loop
      vertex 0.0005 -15.0074 17.2294
      vertex 0.0005 -14.7634 17.4271
      vertex -21.5595 -15.0074 17.2294
    endloop
  endfacet
  facet normal -1.57009e-16 -0.707107 0.707107
    outer loop
      vertex 0.0005 -15.0074 17.2294
      vertex -21.5595 -15.0074 17.2294
      vertex -21.5595 -15.2294 17.0074
    endloop
  endfacet
  facet normal -1.57009e-16 -0.707107 0.707107
    outer loop
      vertex 0.0005 -15.2294 17.0074
      vertex 0.0005 -15.0074 17.2294
      vertex -21.5595 -15.2294 17.0074
    endloop
  endfacet
  facet normal -1.39737e-16 -0.777145 0.629321
    outer loop
      vertex 0.0005 -15.2294 17.0074
      vertex -21.5595 -15.2294 17.0074
      vertex -21.5595 -15.4271 16.7634
    endloop
  endfacet
  facet normal -1.39737e-16 -0.777145 0.629321
    outer loop
      vertex 0.0005 -15.4271 16.7634
      vertex 0.0005 -15.2294 17.0074
      vertex -21.5595 -15.4271 16.7634
    endloop
  endfacet
  facet normal -1.20934e-16 -0.838671 0.544638
    outer loop
      vertex 0.0005 -15.4271 16.7634
      vertex -21.5595 -15.4271 16.7634
      vertex -21.5595 -15.5981 16.5
    endloop
  endfacet
  facet normal -1.20934e-16 -0.838671 0.544638
    outer loop
      vertex 0.0005 -15.5981 16.5
      vertex 0.0005 -15.4271 16.7634
      vertex -21.5595 -15.5981 16.5
    endloop
  endfacet
  facet normal -1.00806e-16 -0.891007 0.45399
    outer loop
      vertex 0.0005 -15.5981 16.5
      vertex -21.5595 -15.5981 16.5
      vertex -21.5595 -15.7406 16.2202
    endloop
  endfacet
  facet normal -1.00806e-16 -0.891007 0.45399
    outer loop
      vertex 0.0005 -15.7406 16.2202
      vertex 0.0005 -15.5981 16.5
      vertex -21.5595 -15.7406 16.2202
    endloop
  endfacet
  facet normal -7.95742e-17 -0.93358 0.35837
    outer loop
      vertex 0.0005 -15.7406 16.2202
      vertex -21.5595 -15.7406 16.2202
      vertex -21.5595 -15.8532 15.9271
    endloop
  endfacet
  facet normal -7.95742e-17 -0.93358 0.35837
    outer loop
      vertex 0.0005 -15.8532 15.9271
      vertex 0.0005 -15.7406 16.2202
      vertex -21.5595 -15.8532 15.9271
    endloop
  endfacet
  facet normal -5.74692e-17 -0.965926 0.258818
    outer loop
      vertex 0.0005 -15.8532 15.9271
      vertex -21.5595 -15.8532 15.9271
      vertex -21.5595 -15.9344 15.6237
    endloop
  endfacet
  facet normal -5.74692e-17 -0.965926 0.258818
    outer loop
      vertex 0.0005 -15.9344 15.6237
      vertex 0.0005 -15.8532 15.9271
      vertex -21.5595 -15.9344 15.6237
    endloop
  endfacet
  facet normal -3.47355e-17 -0.987688 0.156435
    outer loop
      vertex 0.0005 -15.9344 15.6237
      vertex -21.5595 -15.9344 15.6237
      vertex -21.5595 -15.9836 15.3136
    endloop
  endfacet
  facet normal -3.47355e-17 -0.987688 0.156435
    outer loop
      vertex 0.0005 -15.9836 15.3136
      vertex 0.0005 -15.9344 15.6237
      vertex -21.5595 -15.9836 15.3136
    endloop
  endfacet
  facet normal -1.16207e-17 -0.99863 0.052335
    outer loop
      vertex 0.0005 -15.9836 15.3136
      vertex -21.5595 -15.9836 15.3136
      vertex -21.5595 -16 15
    endloop
  endfacet
  facet normal -1.16207e-17 -0.99863 0.052335
    outer loop
      vertex 0.0005 -16 15
      vertex 0.0005 -15.9836 15.3136
      vertex -21.5595 -16 15
    endloop
  endfacet
  facet normal 0 -1 0
    outer loop
      vertex 0.0005 -16 15
      vertex -21.5595 -16 15
      vertex -21.5595 -16 0
    endloop
  endfacet
  facet normal 0 -1 0
    outer loop
      vertex 0.0005 -16 5.37258
      vertex 0.0005 -16 15
      vertex -21.5595 -16 0
    endloop
  endfacet
  facet normal 0 -1 0
    outer loop
      vertex 19.9995 -16 0
      vertex 0.0005 -16 5.37258
      vertex -21.5595 -16 0
    endloop
  endfacet
  facet normal 0 -1 0
    outer loop
      vertex 19.9995 -16 5.37258
      vertex 0.0005 -16 5.37258
      vertex 19.9995 -16 0
    endloop
  endfacet
  facet normal 0 0 -1
    outer loop
      vertex 19.9995 16 0
      vertex 19.9995 -16 0
      vertex -21.5595 16 0
    endloop
  endfacet
  facet normal 0 0 -1
    outer loop
      vertex -21.5595 16 0
      vertex 19.9995 -16 0
      vertex -21.5595 -16 0
    endloop
  endfacet
  facet normal 0 1 0
    outer loop
      vertex -21.5595 16 15
      vertex 0.0005 16 15
      vertex -21.5595 16 0
    endloop
  endfacet
  facet normal 0 1 0
    outer loop
      vertex -21.5595 16 0
      vertex 0.0005 16 15
      vertex 19.9995 16 15
    endloop
  endfacet
  facet normal 0 1 0
    outer loop
      vertex -21.5595 16 0
      vertex 19.9995 16 15
      vertex 19.9995 16 0
    endloop
  endfacet
  facet normal -1.16207e-17 0.99863 0.052335
    outer loop
      vertex -21.5595 15.9836 15.3136
      vertex 0.0005 15.9836 15.3136
      vertex -21.5595 16 15
    endloop
  endfacet
  facet normal -1.16207e-17 0.99863 0.052335
    outer loop
      vertex -21.5595 16 15
      vertex 0.0005 15.9836 15.3136
      vertex 0.0005 16 15
    endloop
  endfacet
  facet normal -3.47355e-17 0.987688 0.156435
    outer loop
      vertex -21.5595 15.9344 15.6237
      vertex 0.0005 15.9344 15.6237
      vertex -21.5595 15.9836 15.3136
    endloop
  endfacet
  facet normal -3.47355e-17 0.987688 0.156435
    outer loop
      vertex -21.5595 15.9836 15.3136
      vertex 0.0005 15.9344 15.6237
      vertex 0.0005 15.9836 15.3136
    endloop
  endfacet
  facet normal -5.74692e-17 0.965926 0.258818
    outer loop
      vertex -21.5595 15.8532 15.9271
      vertex 0.0005 15.8532 15.9271
      vertex -21.5595 15.9344 15.6237
    endloop
  endfacet
  facet normal -5.74692e-17 0.965926 0.258818
    outer loop
      vertex -21.5595 15.9344 15.6237
      vertex 0.0005 15.8532 15.9271
      vertex 0.0005 15.9344 15.6237
    endloop
  endfacet
  facet normal -7.95742e-17 0.93358 0.35837
    outer loop
      vertex -21.5595 15.7406 16.2202
      vertex 0.0005 15.7406 16.2202
      vertex -21.5595 15.8532 15.9271
    endloop
  endfacet
  facet normal -7.95742e-17 0.93358 0.35837
    outer loop
      vertex -21.5595 15.8532 15.9271
      vertex 0.0005 15.7406 16.2202
      vertex 0.0005 15.8532 15.9271
    endloop
  endfacet
  facet normal -1.00806e-16 0.891007 0.45399
    outer loop
      vertex -21.5595 15.5981 16.5
      vertex 0.0005 15.5981 16.5
      vertex -21.5595 15.7406 16.2202
    endloop
  endfacet
  facet normal -1.00806e-16 0.891007 0.45399
    outer loop
      vertex -21.5595 15.7406 16.2202
      vertex 0.0005 15.5981 16.5
      vertex 0.0005 15.7406 16.2202
    endloop
  endfacet
  facet normal -1.20934e-16 0.838671 0.544638
    outer loop
      vertex -21.5595 15.4271 16.7634
      vertex 0.0005 15.4271 16.7634
      vertex -21.5595 15.5981 16.5
    endloop
  endfacet
  facet normal -1.20934e-16 0.838671 0.544638
    outer loop
      vertex -21.5595 15.5981 16.5
      vertex 0.0005 15.4271 16.7634
      vertex 0.0005 15.5981 16.5
    endloop
  endfacet
  facet normal -1.39737e-16 0.777145 0.629321
    outer loop
      vertex -21.5595 15.2294 17.0074
      vertex 0.0005 15.2294 17.0074
      vertex -21.5595 15.4271 16.7634
    endloop
  endfacet
  facet normal -1.39737e-16 0.777145 0.629321
    outer loop
      vertex -21.5595 15.4271 16.7634
      vertex 0.0005 15.2294 17.0074
      vertex 0.0005 15.4271 16.7634
    endloop
  endfacet
  facet normal -1.57009e-16 0.707107 0.707107
    outer loop
      vertex -21.5595 15.0074 17.2294
      vertex 0.0005 15.0074 17.2294
      vertex -21.5595 15.2294 17.0074
    endloop
  endfacet
  facet normal -1.57009e-16 0.707107 0.707107
    outer loop
      vertex -21.5595 15.2294 17.0074
      vertex 0.0005 15.0074 17.2294
      vertex 0.0005 15.2294 17.0074
    endloop
  endfacet
  facet normal -1.72561e-16 0.629321 0.777145
    outer loop
      vertex -21.5595 15.0074 17.2294
      vertex -21.5595 14.7634 17.4271
      vertex 0.0005 14.7634 17.4271
    endloop
  endfacet
  facet normal -1.72561e-16 0.629321 0.777145
    outer loop
      vertex 0.0005 15.0074 17.2294
      vertex -21.5595 15.0074 17.2294
      vertex 0.0005 14.7634 17.4271
    endloop
  endfacet
  facet normal -1.86222e-16 0.544638 0.838671
    outer loop
      vertex -21.5595 14.7634 17.4271
      vertex -21.5595 14.5 17.5981
      vertex 0.0005 14.5 17.5981
    endloop
  endfacet
  facet normal -1.86222e-16 0.544638 0.838671
    outer loop
      vertex 0.0005 14.7634 17.4271
      vertex -21.5595 14.7634 17.4271
      vertex 0.0005 14.5 17.5981
    endloop
  endfacet
  facet normal -1.97843e-16 0.45399 0.891007
    outer loop
      vertex -21.5595 14.5 17.5981
      vertex -21.5595 14.2202 17.7406
      vertex 0.0005 14.2202 17.7406
    endloop
  endfacet
  facet normal -1.97843e-16 0.45399 0.891007
    outer loop
      vertex 0.0005 14.5 17.5981
      vertex -21.5595 14.5 17.5981
      vertex 0.0005 14.2202 17.7406
    endloop
  endfacet
  facet normal -2.07296e-16 0.35837 0.93358
    outer loop
      vertex -21.5595 14.2202 17.7406
      vertex -21.5595 13.9271 17.8532
      vertex 0.0005 13.9271 17.8532
    endloop
  endfacet
  facet normal -2.07296e-16 0.35837 0.93358
    outer loop
      vertex 0.0005 14.2202 17.7406
      vertex -21.5595 14.2202 17.7406
      vertex 0.0005 13.9271 17.8532
    endloop
  endfacet
  facet normal -2.14479e-16 0.258818 0.965926
    outer loop
      vertex -21.5595 13.9271 17.8532
      vertex -21.5595 13.6237 17.9344
      vertex 0.0005 13.6237 17.9344
    endloop
  endfacet
  facet normal -2.14479e-16 0.258818 0.965926
    outer loop
      vertex 0.0005 13.9271 17.8532
      vertex -21.5595 13.9271 17.8532
      vertex 0.0005 13.6237 17.9344
    endloop
  endfacet
  facet normal -2.19311e-16 0.156435 0.987688
    outer loop
      vertex -21.5595 13.6237 17.9344
      vertex -21.5595 13.3136 17.9836
      vertex 0.0005 13.3136 17.9836
    endloop
  endfacet
  facet normal -2.19311e-16 0.156435 0.987688
    outer loop
      vertex 0.0005 13.6237 17.9344
      vertex -21.5595 13.6237 17.9344
      vertex 0.0005 13.3136 17.9836
    endloop
  endfacet
  facet normal 0 -1 0
    outer loop
      vertex -2.8195 13.075 2.5
      vertex -2.8195 13.075 17.9961
      vertex -5.4595 13.075 17.9961
    endloop
  endfacet
  facet normal 0 -1 0
    outer loop
      vertex -5.4595 13.075 2.5
      vertex -2.8195 13.075 2.5
      vertex -5.4595 13.075 17.9961
    endloop
  endfacet
  facet normal 0 -1 0
    outer loop
      vertex -7.4595 13.075 2.5
      vertex -7.4595 13.075 17.9961
      vertex -10.0995 13.075 17.9961
    endloop
  endfacet
  facet normal 0 -1 0
    outer loop
      vertex -10.0995 13.075 2.5
      vertex -7.4595 13.075 2.5
      vertex -10.0995 13.075 17.9961
    endloop
  endfacet
  facet normal 0 -1 0
    outer loop
      vertex -12.0995 13.075 2.5
      vertex -12.0995 13.075 17.9961
      vertex -14.7395 13.075 17.9961
    endloop
  endfacet
  facet normal 0 -1 0
    outer loop
      vertex -14.7395 13.075 2.5
      vertex -12.0995 13.075 2.5
      vertex -14.7395 13.075 17.9961
    endloop
  endfacet
  facet normal 0 -1 0
    outer loop
      vertex -16.7395 13.075 2.5
      vertex -16.7395 13.075 17.9961
      vertex -19.3795 13.075 17.9961
    endloop
  endfacet
  facet normal 0 -1 0
    outer loop
      vertex -19.3795 13.075 2.5
      vertex -16.7395 13.075 2.5
      vertex -19.3795 13.075 17.9961
    endloop
  endfacet
  facet normal 0 0 1
    outer loop
      vertex -16.7395 -13.075 2.5
      vertex -16.7395 13.075 2.5
      vertex -19.3795 13.075 2.5
    endloop
  endfacet
  facet normal 0 0 1
    outer loop
      vertex -19.3795 -13.075 2.5
      vertex -16.7395 -13.075 2.5
      vertex -19.3795 13.075 2.5
    endloop
  endfacet
  facet normal 0 0 1
    outer loop
      vertex -12.0995 -13.075 2.5
      vertex -12.0995 13.075 2.5
      vertex -14.7395 13.075 2.5
    endloop
  endfacet
  facet normal 0 0 1
    outer loop
      vertex -14.7395 -13.075 2.5
      vertex -12.0995 -13.075 2.5
      vertex -14.7395 13.075 2.5
    endloop
  endfacet
  facet normal 0 0 1
    outer loop
      vertex -7.4595 -13.075 2.5
      vertex -7.4595 13.075 2.5
      vertex -10.0995 13.075 2.5
    endloop
  endfacet
  facet normal 0 0 1
    outer loop
      vertex -10.0995 -13.075 2.5
      vertex -7.4595 -13.075 2.5
      vertex -10.0995 13.075 2.5
    endloop
  endfacet
  facet normal 0 0 1
    outer loop
      vertex -2.8195 -13.075 2.5
      vertex -2.8195 13.075 2.5
      vertex -5.4595 13.075 2.5
    endloop
  endfacet
  facet normal 0 0 1
    outer loop
      vertex -5.4595 -13.075 2.5
      vertex -2.8195 -13.075 2.5
      vertex -5.4595 13.075 2.5
    endloop
  endfacet
  facet normal 0 1 0
    outer loop
      vertex 19.9995 -3.2 18.01
      vertex 19.9995 -3.2 10.41
      vertex 19.9995 -3.2 18
    endloop
  endfacet
  facet normal 0 1 0
    outer loop
      vertex 19.9995 -3.2 18.01
      vertex 19.9995 -3.2 18
      vertex 0.0005 -3.2 18
    endloop
  endfacet
  facet normal 0 1 0
    outer loop
      vertex 19.9995 -3.2 18.01
      vertex 0.0005 -3.2 18
      vertex -0.0005 -3.2 18
    endloop
  endfacet
  facet normal 0 1 0
    outer loop
      vertex 19.9995 -3.2 18.01
      vertex -0.0005 -3.2 18
      vertex -0.0005 -3.2 18.01
    endloop
  endfacet
  facet normal -1 0 -2.22045e-16
    outer loop
      vertex -0.0005 -3.39081 18
      vertex -0.0005 -3.2 18.01
      vertex -0.0005 -3.2 18
    endloop
  endfacet
  facet normal -2.2174e-16 -0.0523365 0.99863
    outer loop
      vertex 19.9995 -3.2 18.01
      vertex -0.0005 -3.2 18.01
      vertex -0.0005 -3.39081 18
    endloop
  endfacet
  facet normal -2.2174e-16 -0.0523365 0.99863
    outer loop
      vertex 0.0005 -3.59721 17.9892
      vertex 19.9995 -3.2 18.01
      vertex 0.0005 -3.39081 18
    endloop
  endfacet
  facet normal -2.2174e-16 -0.0523365 0.99863
    outer loop
      vertex 0.0005 -3.39081 18
      vertex 19.9995 -3.2 18.01
      vertex -0.0005 -3.39081 18
    endloop
  endfacet
  facet normal -2.2174e-16 -0.0523365 0.99863
    outer loop
      vertex 19.9995 -3.59721 17.9892
      vertex 19.9995 -3.2 18.01
      vertex 0.0005 -3.59721 17.9892
    endloop
  endfacet
  facet normal -2.19311e-16 -0.156434 0.987688
    outer loop
      vertex 19.9995 -3.59721 17.9892
      vertex 0.0005 -3.59721 17.9892
      vertex 0.0005 -3.99006 17.927
    endloop
  endfacet
  facet normal -2.19311e-16 -0.156434 0.987688
    outer loop
      vertex 19.9995 -3.99006 17.927
      vertex 19.9995 -3.59721 17.9892
      vertex 0.0005 -3.99006 17.927
    endloop
  endfacet
  facet normal -2.14479e-16 -0.258818 0.965926
    outer loop
      vertex 19.9995 -3.99006 17.927
      vertex 0.0005 -3.99006 17.927
      vertex 0.0005 -4.37426 17.824
    endloop
  endfacet
  facet normal -2.14479e-16 -0.258818 0.965926
    outer loop
      vertex 19.9995 -4.37426 17.824
      vertex 19.9995 -3.99006 17.927
      vertex 0.0005 -4.37426 17.824
    endloop
  endfacet
  facet normal -2.07296e-16 -0.358368 0.93358
    outer loop
      vertex 19.9995 -4.37426 17.824
      vertex 0.0005 -4.37426 17.824
      vertex 0.0005 -4.7456 17.6815
    endloop
  endfacet
  facet normal -2.07296e-16 -0.358368 0.93358
    outer loop
      vertex 19.9995 -4.7456 17.6815
      vertex 19.9995 -4.37426 17.824
      vertex 0.0005 -4.7456 17.6815
    endloop
  endfacet
  facet normal -1.97843e-16 -0.45399 0.891007
    outer loop
      vertex 19.9995 -4.7456 17.6815
      vertex 0.0005 -4.7456 17.6815
      vertex 0.0005 -5.1 17.5009
    endloop
  endfacet
  facet normal -1.97843e-16 -0.45399 0.891007
    outer loop
      vertex 19.9995 -5.1 17.5009
      vertex 19.9995 -4.7456 17.6815
      vertex 0.0005 -5.1 17.5009
    endloop
  endfacet
  facet normal -1.86222e-16 -0.544639 0.838671
    outer loop
      vertex 19.9995 -5.1 17.5009
      vertex 0.0005 -5.1 17.5009
      vertex 0.0005 -5.43358 17.2843
    endloop
  endfacet
  facet normal -1.86222e-16 -0.544639 0.838671
    outer loop
      vertex 19.9995 -5.43358 17.2843
      vertex 19.9995 -5.1 17.5009
      vertex 0.0005 -5.43358 17.2843
    endloop
  endfacet
  facet normal -1.72561e-16 -0.629322 0.777145
    outer loop
      vertex 19.9995 -5.43358 17.2843
      vertex 0.0005 -5.43358 17.2843
      vertex 0.0005 -5.7427 17.0339
    endloop
  endfacet
  facet normal -1.72561e-16 -0.629322 0.777145
    outer loop
      vertex 19.9995 -5.7427 17.034
      vertex 19.9995 -5.43358 17.2843
      vertex 0.0005 -5.7427 17.0339
    endloop
  endfacet
  facet normal -1.57009e-16 -0.707107 0.707107
    outer loop
      vertex 19.9995 -5.7427 17.034
      vertex 0.0005 -5.7427 17.0339
      vertex 0.0005 -6.02395 16.7527
    endloop
  endfacet
  facet normal -1.57009e-16 -0.707107 0.707107
    outer loop
      vertex 19.9995 -6.02395 16.7527
      vertex 19.9995 -5.7427 17.034
      vertex 0.0005 -6.02395 16.7527
    endloop
  endfacet
  facet normal -1.39738e-16 -0.777145 0.629322
    outer loop
      vertex 19.9995 -6.02395 16.7527
      vertex 0.0005 -6.02395 16.7527
      vertex 0.0005 -6.27426 16.4436
    endloop
  endfacet
  facet normal -1.39738e-16 -0.777145 0.629322
    outer loop
      vertex 19.9995 -6.27426 16.4436
      vertex 19.9995 -6.02395 16.7527
      vertex 0.0005 -6.27426 16.4436
    endloop
  endfacet
  facet normal -1.20934e-16 -0.838671 0.544639
    outer loop
      vertex 19.9995 -6.27426 16.4436
      vertex 0.0005 -6.27426 16.4436
      vertex 0.0005 -6.4909 16.11
    endloop
  endfacet
  facet normal -1.20934e-16 -0.838671 0.544639
    outer loop
      vertex 19.9995 -6.4909 16.11
      vertex 19.9995 -6.27426 16.4436
      vertex 0.0005 -6.4909 16.11
    endloop
  endfacet
  facet normal -1.00806e-16 -0.891007 0.45399
    outer loop
      vertex 19.9995 -6.4909 16.11
      vertex 0.0005 -6.4909 16.11
      vertex 0.0005 -6.67147 15.7556
    endloop
  endfacet
  facet normal -1.00806e-16 -0.891007 0.45399
    outer loop
      vertex 19.9995 -6.67147 15.7556
      vertex 19.9995 -6.4909 16.11
      vertex 0.0005 -6.67147 15.7556
    endloop
  endfacet
  facet normal -7.95738e-17 -0.93358 0.358368
    outer loop
      vertex 19.9995 -6.67147 15.7556
      vertex 0.0005 -6.67147 15.7556
      vertex 0.0005 -6.81401 15.3843
    endloop
  endfacet
  facet normal -7.95738e-17 -0.93358 0.358368
    outer loop
      vertex 19.9995 -6.81401 15.3843
      vertex 19.9995 -6.67147 15.7556
      vertex 0.0005 -6.81401 15.3843
    endloop
  endfacet
  facet normal -5.74692e-17 -0.965926 0.258818
    outer loop
      vertex 19.9995 -6.81401 15.3843
      vertex 0.0005 -6.81401 15.3843
      vertex 0.0005 -6.91696 15.0001
    endloop
  endfacet
  facet normal -5.74692e-17 -0.965926 0.258818
    outer loop
      vertex 19.9995 -6.91696 15.0001
      vertex 19.9995 -6.81401 15.3843
      vertex 0.0005 -6.91696 15.0001
    endloop
  endfacet
  facet normal -3.47353e-17 -0.987688 0.156434
    outer loop
      vertex 19.9995 -6.91696 15.0001
      vertex 0.0005 -6.91696 15.0001
      vertex 0.0005 -6.97918 14.6072
    endloop
  endfacet
  facet normal -3.47353e-17 -0.987688 0.156434
    outer loop
      vertex 19.9995 -6.97918 14.6072
      vertex 19.9995 -6.91696 15.0001
      vertex 0.0005 -6.97918 14.6072
    endloop
  endfacet
  facet normal -1.1621e-17 -0.99863 0.0523365
    outer loop
      vertex 19.9995 -6.97918 14.6072
      vertex 0.0005 -6.97918 14.6072
      vertex 0.0005 -6.99101 14.3816
    endloop
  endfacet
  facet normal -1.1621e-17 -0.99863 0.0523365
    outer loop
      vertex 3.4995 -6.99101 14.3816
      vertex 19.9995 -6.97918 14.6072
      vertex 2.4995 -6.99101 14.3816
    endloop
  endfacet
  facet normal -1.1621e-17 -0.99863 0.0523365
    outer loop
      vertex 2.4995 -6.99101 14.3816
      vertex 19.9995 -6.97918 14.6072
      vertex 0.0005 -6.99101 14.3816
    endloop
  endfacet
  facet normal -1.1621e-17 -0.99863 0.0523365
    outer loop
      vertex 2.4995 -7 14.21
      vertex 3.4995 -6.99101 14.3816
      vertex 2.4995 -6.99101 14.3816
    endloop
  endfacet
  facet normal -1.1621e-17 -0.99863 0.0523365
    outer loop
      vertex 6.4995 -6.99101 14.3816
      vertex 19.9995 -6.97918 14.6072
      vertex 3.4995 -6.99101 14.3816
    endloop
  endfacet
  facet normal -1.1621e-17 -0.99863 0.0523365
    outer loop
      vertex 7.4995 -6.99101 14.3816
      vertex 19.9995 -6.97918 14.6072
      vertex 6.4995 -6.99101 14.3816
    endloop
  endfacet
  facet normal -1.1621e-17 -0.99863 0.0523365
    outer loop
      vertex 10.4995 -6.99101 14.3816
      vertex 10.4995 -7 14.21
      vertex 11.4995 -6.99101 14.3816
    endloop
  endfacet
  facet normal -1.1621e-17 -0.99863 0.0523365
    outer loop
      vertex 10.4995 -6.99101 14.3816
      vertex 11.4995 -6.99101 14.3816
      vertex 19.9995 -6.97918 14.6072
    endloop
  endfacet
  facet normal -1.1621e-17 -0.99863 0.0523365
    outer loop
      vertex 11.4995 -6.99101 14.3816
      vertex 14.4995 -6.99101 14.3816
      vertex 19.9995 -6.97918 14.6072
    endloop
  endfacet
  facet normal -1.1621e-17 -0.99863 0.0523365
    outer loop
      vertex 6.4995 -6.99101 14.3816
      vertex 6.4995 -7 14.21
      vertex 7.4995 -6.99101 14.3816
    endloop
  endfacet
  facet normal -1.1621e-17 -0.99863 0.0523365
    outer loop
      vertex 14.4995 -6.99101 14.3816
      vertex 14.4995 -7 14.21
      vertex 15.4995 -6.99101 14.3816
    endloop
  endfacet
  facet normal -1.1621e-17 -0.99863 0.0523365
    outer loop
      vertex 15.4995 -7 14.21
      vertex 15.4995 -6.99101 14.3816
      vertex 14.4995 -7 14.21
    endloop
  endfacet
  facet normal -1.1621e-17 -0.99863 0.0523365
    outer loop
      vertex 11.4995 -7 14.21
      vertex 11.4995 -6.99101 14.3816
      vertex 10.4995 -7 14.21
    endloop
  endfacet
  facet normal -1.1621e-17 -0.99863 0.0523365
    outer loop
      vertex 14.4995 -6.99101 14.3816
      vertex 15.4995 -6.99101 14.3816
      vertex 19.9995 -6.97918 14.6072
    endloop
  endfacet
  facet normal -1.1621e-17 -0.99863 0.0523365
    outer loop
      vertex 15.4995 -6.99101 14.3816
      vertex 19.9995 -6.99101 14.3816
      vertex 19.9995 -6.97918 14.6072
    endloop
  endfacet
  facet normal -1.1621e-17 -0.99863 0.0523365
    outer loop
      vertex 19.9995 -7 14.21
      vertex 19.9995 -6.97918 14.6072
      vertex 19.9995 -6.99101 14.3816
    endloop
  endfacet
  facet normal -1.1621e-17 -0.99863 0.0523365
    outer loop
      vertex 7.4995 -6.99101 14.3816
      vertex 10.4995 -6.99101 14.3816
      vertex 19.9995 -6.97918 14.6072
    endloop
  endfacet
  facet normal -1.1621e-17 -0.99863 0.0523365
    outer loop
      vertex 7.4995 -7 14.21
      vertex 7.4995 -6.99101 14.3816
      vertex 6.4995 -7 14.21
    endloop
  endfacet
  facet normal -1.1621e-17 -0.99863 0.0523365
    outer loop
      vertex 3.4995 -7 14.21
      vertex 3.4995 -6.99101 14.3816
      vertex 2.4995 -7 14.21
    endloop
  endfacet
  facet normal 0 -0.707107 0.707107
    outer loop
      vertex 15.4995 -15.5 5.87258
      vertex 19.9995 -16 5.37258
      vertex 19.9995 -6.99101 14.3816
    endloop
  endfacet
  facet normal 0 -0.707107 0.707107
    outer loop
      vertex 3.4995 -6.99101 14.3816
      vertex 3.4995 -15.5 5.87258
      vertex 6.4995 -6.99101 14.3816
    endloop
  endfacet
  facet normal 0 -0.707107 0.707107
    outer loop
      vertex 0.0005 -16 5.37258
      vertex 19.9995 -16 5.37258
      vertex 15.4995 -15.5 5.87258
    endloop
  endfacet
  facet normal 0 -0.707107 0.707107
    outer loop
      vertex 10.4995 -15.5 5.87258
      vertex 10.4995 -6.99101 14.3816
      vertex 7.4995 -15.5 5.87258
    endloop
  endfacet
  facet normal 0 -0.707107 0.707107
    outer loop
      vertex 0.0005 -16 5.37258
      vertex 15.4995 -15.5 5.87258
      vertex 14.4995 -15.5 5.87258
    endloop
  endfacet
  facet normal 0 -0.707107 0.707107
    outer loop
      vertex 0.0005 -16 5.37258
      vertex 14.4995 -15.5 5.87258
      vertex 11.4995 -15.5 5.87258
    endloop
  endfacet
  facet normal 0 -0.707107 0.707107
    outer loop
      vertex 2.4995 -15.5 5.87258
      vertex 2.4995 -6.99101 14.3816
      vertex 0.0005 -16 5.37258
    endloop
  endfacet
  facet normal 0 -0.707107 0.707107
    outer loop
      vertex 0.0005 -16 5.37258
      vertex 11.4995 -15.5 5.87258
      vertex 10.4995 -15.5 5.87258
    endloop
  endfacet
  facet normal 0 -0.707107 0.707107
    outer loop
      vertex 0.0005 -16 5.37258
      vertex 10.4995 -15.5 5.87258
      vertex 7.4995 -15.5 5.87258
    endloop
  endfacet
  facet normal 0 -0.707107 0.707107
    outer loop
      vertex 6.4995 -15.5 5.87258
      vertex 6.4995 -6.99101 14.3816
      vertex 3.4995 -15.5 5.87258
    endloop
  endfacet
  facet normal 0 -0.707107 0.707107
    outer loop
      vertex 0.0005 -16 5.37258
      vertex 7.4995 -15.5 5.87258
      vertex 6.4995 -15.5 5.87258
    endloop
  endfacet
  facet normal 0 -0.707107 0.707107
    outer loop
      vertex 0.0005 -16 5.37258
      vertex 6.4995 -15.5 5.87258
      vertex 3.4995 -15.5 5.87258
    endloop
  endfacet
  facet normal 0 -0.707107 0.707107
    outer loop
      vertex 14.4995 -15.5 5.87258
      vertex 14.4995 -6.99101 14.3816
      vertex 11.4995 -15.5 5.87258
    endloop
  endfacet
  facet normal 0 -0.707107 0.707107
    outer loop
      vertex 0.0005 -16 5.37258
      vertex 3.4995 -15.5 5.87258
      vertex 2.4995 -15.5 5.87258
    endloop
  endfacet
  facet normal 0 -0.707107 0.707107
    outer loop
      vertex 0.0005 -6.99101 14.3816
      vertex 0.0005 -16 5.37258
      vertex 2.4995 -6.99101 14.3816
    endloop
  endfacet
  facet normal 0 -0.707107 0.707107
    outer loop
      vertex 7.4995 -6.99101 14.3816
      vertex 7.4995 -15.5 5.87258
      vertex 10.4995 -6.99101 14.3816
    endloop
  endfacet
  facet normal 0 -0.707107 0.707107
    outer loop
      vertex 11.4995 -6.99101 14.3816
      vertex 11.4995 -15.5 5.87258
      vertex 14.4995 -6.99101 14.3816
    endloop
  endfacet
  facet normal 0 -0.707107 0.707107
    outer loop
      vertex 15.4995 -6.99101 14.3816
      vertex 15.4995 -15.5 5.87258
      vertex 19.9995 -6.99101 14.3816
    endloop
  endfacet
  facet normal 1 0 2.22045e-16
    outer loop
      vertex 19.9995 -3.59721 10.4308
      vertex 19.9995 -16 5.37258
      vertex 19.9995 -3.2 10.41
    endloop
  endfacet
  facet normal 1 0 2.22045e-16
    outer loop
      vertex 19.9995 13 18
      vertex 19.9995 -3.2 18
      vertex 19.9995 -3.2 10.41
    endloop
  endfacet
  facet normal 1 0 2.22045e-16
    outer loop
      vertex 19.9995 -3.99006 10.493
      vertex 19.9995 -16 5.37258
      vertex 19.9995 -3.59721 10.4308
    endloop
  endfacet
  facet normal 1 0 2.22045e-16
    outer loop
      vertex 19.9995 -16 0
      vertex 19.9995 13 18
      vertex 19.9995 -3.2 10.41
    endloop
  endfacet
  facet normal 1 0 2.22045e-16
    outer loop
      vertex 19.9995 -4.37426 10.596
      vertex 19.9995 -16 5.37258
      vertex 19.9995 -3.99006 10.493
    endloop
  endfacet
  facet normal 1 0 2.22045e-16
    outer loop
      vertex 19.9995 -4.7456 10.7385
      vertex 19.9995 -16 5.37258
      vertex 19.9995 -4.37426 10.596
    endloop
  endfacet
  facet normal 1 0 2.22045e-16
    outer loop
      vertex 19.9995 -5.1 10.9191
      vertex 19.9995 -16 5.37258
      vertex 19.9995 -4.7456 10.7385
    endloop
  endfacet
  facet normal 1 0 2.22045e-16
    outer loop
      vertex 19.9995 -5.43358 11.1357
      vertex 19.9995 -16 5.37258
      vertex 19.9995 -5.1 10.9191
    endloop
  endfacet
  facet normal 1 0 2.22045e-16
    outer loop
      vertex 19.9995 -5.7427 11.3861
      vertex 19.9995 -16 5.37258
      vertex 19.9995 -5.43358 11.1357
    endloop
  endfacet
  facet normal 1 0 2.22045e-16
    outer loop
      vertex 19.9995 -6.02395 11.6673
      vertex 19.9995 -16 5.37258
      vertex 19.9995 -5.7427 11.3861
    endloop
  endfacet
  facet normal 1 0 2.22045e-16
    outer loop
      vertex 19.9995 -6.27426 11.9764
      vertex 19.9995 -16 5.37258
      vertex 19.9995 -6.02395 11.6673
    endloop
  endfacet
  facet normal 1 0 2.22045e-16
    outer loop
      vertex 19.9995 -6.4909 12.31
      vertex 19.9995 -16 5.37258
      vertex 19.9995 -6.27426 11.9764
    endloop
  endfacet
  facet normal 1 0 2.22045e-16
    outer loop
      vertex 19.9995 -6.67147 12.6644
      vertex 19.9995 -16 5.37258
      vertex 19.9995 -6.4909 12.31
    endloop
  endfacet
  facet normal 1 0 2.22045e-16
    outer loop
      vertex 19.9995 -6.81401 13.0357
      vertex 19.9995 -16 5.37258
      vertex 19.9995 -6.67147 12.6644
    endloop
  endfacet
  facet normal 1 0 2.22045e-16
    outer loop
      vertex 19.9995 -6.91696 13.4199
      vertex 19.9995 -16 5.37258
      vertex 19.9995 -6.81401 13.0357
    endloop
  endfacet
  facet normal 1 0 2.22045e-16
    outer loop
      vertex 19.9995 -6.97918 13.8128
      vertex 19.9995 -16 5.37258
      vertex 19.9995 -6.91696 13.4199
    endloop
  endfacet
  facet normal 1 0 2.22045e-16
    outer loop
      vertex 19.9995 -7 14.21
      vertex 19.9995 -16 5.37258
      vertex 19.9995 -6.97918 13.8128
    endloop
  endfacet
  facet normal 1 0 2.22045e-16
    outer loop
      vertex 19.9995 -16 5.37258
      vertex 19.9995 -16 0
      vertex 19.9995 -3.2 10.41
    endloop
  endfacet
  facet normal 1 0 2.22045e-16
    outer loop
      vertex 19.9995 -6.99101 14.3816
      vertex 19.9995 -16 5.37258
      vertex 19.9995 -7 14.21
    endloop
  endfacet
  facet normal 1 0 2.22045e-16
    outer loop
      vertex 19.9995 -16 0
      vertex 19.9995 16 0
      vertex 19.9995 13 18
    endloop
  endfacet
  facet normal 1 0 2.22045e-16
    outer loop
      vertex 19.9995 16 0
      vertex 19.9995 16 15
      vertex 19.9995 13 18
    endloop
  endfacet
  facet normal 1 0 2.22045e-16
    outer loop
      vertex 19.9995 16 15
      vertex 19.9995 15.9836 15.3136
      vertex 19.9995 13 18
    endloop
  endfacet
  facet normal 1 0 2.22045e-16
    outer loop
      vertex 19.9995 15.9836 15.3136
      vertex 19.9995 15.9344 15.6237
      vertex 19.9995 13 18
    endloop
  endfacet
  facet normal 1 0 2.22045e-16
    outer loop
      vertex 19.9995 15.9344 15.6237
      vertex 19.9995 15.8532 15.9271
      vertex 19.9995 13 18
    endloop
  endfacet
  facet normal 1 0 2.22045e-16
    outer loop
      vertex 19.9995 15.8532 15.9271
      vertex 19.9995 15.7406 16.2202
      vertex 19.9995 13 18
    endloop
  endfacet
  facet normal 1 0 2.22045e-16
    outer loop
      vertex 19.9995 15.7406 16.2202
      vertex 19.9995 15.5981 16.5
      vertex 19.9995 13 18
    endloop
  endfacet
  facet normal 1 0 2.22045e-16
    outer loop
      vertex 19.9995 15.5981 16.5
      vertex 19.9995 15.4271 16.7634
      vertex 19.9995 13 18
    endloop
  endfacet
  facet normal 1 0 2.22045e-16
    outer loop
      vertex 19.9995 15.4271 16.7634
      vertex 19.9995 15.2294 17.0074
      vertex 19.9995 13 18
    endloop
  endfacet
  facet normal 1 0 2.22045e-16
    outer loop
      vertex 19.9995 15.2294 17.0074
      vertex 19.9995 15.0074 17.2294
      vertex 19.9995 13 18
    endloop
  endfacet
  facet normal 1 0 2.22045e-16
    outer loop
      vertex 19.9995 15.0074 17.2294
      vertex 19.9995 14.7634 17.4271
      vertex 19.9995 13 18
    endloop
  endfacet
  facet normal 1 0 2.22045e-16
    outer loop
      vertex 19.9995 14.7634 17.4271
      vertex 19.9995 14.5 17.5981
      vertex 19.9995 13 18
    endloop
  endfacet
  facet normal 1 0 2.22045e-16
    outer loop
      vertex 19.9995 14.5 17.5981
      vertex 19.9995 14.2202 17.7406
      vertex 19.9995 13 18
    endloop
  endfacet
  facet normal 1 0 2.22045e-16
    outer loop
      vertex 19.9995 14.2202 17.7406
      vertex 19.9995 13.9271 17.8532
      vertex 19.9995 13 18
    endloop
  endfacet
  facet normal 1 0 2.22045e-16
    outer loop
      vertex 19.9995 13.9271 17.8532
      vertex 19.9995 13.6237 17.9344
      vertex 19.9995 13 18
    endloop
  endfacet
  facet normal 1 0 2.22045e-16
    outer loop
      vertex 19.9995 13.6237 17.9344
      vertex 19.9995 13.3136 17.9836
      vertex 19.9995 13 18
    endloop
  endfacet
  facet normal -1.16207e-17 0.99863 0.052335
    outer loop
      vertex 0.0005 15.9836 15.3136
      vertex 19.9995 15.9836 15.3136
      vertex 0.0005 16 15
    endloop
  endfacet
  facet normal -1.16207e-17 0.99863 0.052335
    outer loop
      vertex 0.0005 16 15
      vertex 19.9995 15.9836 15.3136
      vertex 19.9995 16 15
    endloop
  endfacet
  facet normal -3.47355e-17 0.987688 0.156435
    outer loop
      vertex 0.0005 15.9344 15.6237
      vertex 19.9995 15.9344 15.6237
      vertex 0.0005 15.9836 15.3136
    endloop
  endfacet
  facet normal -3.47355e-17 0.987688 0.156435
    outer loop
      vertex 0.0005 15.9836 15.3136
      vertex 19.9995 15.9344 15.6237
      vertex 19.9995 15.9836 15.3136
    endloop
  endfacet
  facet normal -5.74692e-17 0.965926 0.258818
    outer loop
      vertex 0.0005 15.8532 15.9271
      vertex 19.9995 15.8532 15.9271
      vertex 0.0005 15.9344 15.6237
    endloop
  endfacet
  facet normal -5.74692e-17 0.965926 0.258818
    outer loop
      vertex 0.0005 15.9344 15.6237
      vertex 19.9995 15.8532 15.9271
      vertex 19.9995 15.9344 15.6237
    endloop
  endfacet
  facet normal -7.95742e-17 0.93358 0.35837
    outer loop
      vertex 0.0005 15.7406 16.2202
      vertex 19.9995 15.7406 16.2202
      vertex 0.0005 15.8532 15.9271
    endloop
  endfacet
  facet normal -7.95742e-17 0.93358 0.35837
    outer loop
      vertex 0.0005 15.8532 15.9271
      vertex 19.9995 15.7406 16.2202
      vertex 19.9995 15.8532 15.9271
    endloop
  endfacet
  facet normal -1.00806e-16 0.891007 0.45399
    outer loop
      vertex 0.0005 15.5981 16.5
      vertex 19.9995 15.5981 16.5
      vertex 0.0005 15.7406 16.2202
    endloop
  endfacet
  facet normal -1.00806e-16 0.891007 0.45399
    outer loop
      vertex 0.0005 15.7406 16.2202
      vertex 19.9995 15.5981 16.5
      vertex 19.9995 15.7406 16.2202
    endloop
  endfacet
  facet normal -1.20934e-16 0.838671 0.544638
    outer loop
      vertex 0.0005 15.4271 16.7634
      vertex 19.9995 15.4271 16.7634
      vertex 0.0005 15.5981 16.5
    endloop
  endfacet
  facet normal -1.20934e-16 0.838671 0.544638
    outer loop
      vertex 0.0005 15.5981 16.5
      vertex 19.9995 15.4271 16.7634
      vertex 19.9995 15.5981 16.5
    endloop
  endfacet
  facet normal -1.39737e-16 0.777145 0.629321
    outer loop
      vertex 0.0005 15.2294 17.0074
      vertex 19.9995 15.2294 17.0074
      vertex 0.0005 15.4271 16.7634
    endloop
  endfacet
  facet normal -1.39737e-16 0.777145 0.629321
    outer loop
      vertex 0.0005 15.4271 16.7634
      vertex 19.9995 15.2294 17.0074
      vertex 19.9995 15.4271 16.7634
    endloop
  endfacet
  facet normal -1.57009e-16 0.707107 0.707107
    outer loop
      vertex 0.0005 15.0074 17.2294
      vertex 19.9995 15.0074 17.2294
      vertex 0.0005 15.2294 17.0074
    endloop
  endfacet
  facet normal -1.57009e-16 0.707107 0.707107
    outer loop
      vertex 0.0005 15.2294 17.0074
      vertex 19.9995 15.0074 17.2294
      vertex 19.9995 15.2294 17.0074
    endloop
  endfacet
  facet normal -1.72561e-16 0.629321 0.777145
    outer loop
      vertex 0.0005 15.0074 17.2294
      vertex 0.0005 14.7634 17.4271
      vertex 19.9995 14.7634 17.4271
    endloop
  endfacet
  facet normal -1.72561e-16 0.629321 0.777145
    outer loop
      vertex 19.9995 15.0074 17.2294
      vertex 0.0005 15.0074 17.2294
      vertex 19.9995 14.7634 17.4271
    endloop
  endfacet
  facet normal -1.86222e-16 0.544638 0.838671
    outer loop
      vertex 0.0005 14.7634 17.4271
      vertex 0.0005 14.5 17.5981
      vertex 19.9995 14.5 17.5981
    endloop
  endfacet
  facet normal -1.86222e-16 0.544638 0.838671
    outer loop
      vertex 19.9995 14.7634 17.4271
      vertex 0.0005 14.7634 17.4271
      vertex 19.9995 14.5 17.5981
    endloop
  endfacet
  facet normal -1.97843e-16 0.45399 0.891007
    outer loop
      vertex 0.0005 14.5 17.5981
      vertex 0.0005 14.2202 17.7406
      vertex 19.9995 14.2202 17.7406
    endloop
  endfacet
  facet normal -1.97843e-16 0.45399 0.891007
    outer loop
      vertex 19.9995 14.5 17.5981
      vertex 0.0005 14.5 17.5981
      vertex 19.9995 14.2202 17.7406
    endloop
  endfacet
  facet normal -2.07296e-16 0.35837 0.93358
    outer loop
      vertex 0.0005 14.2202 17.7406
      vertex 0.0005 13.9271 17.8532
      vertex 19.9995 13.9271 17.8532
    endloop
  endfacet
  facet normal -2.07296e-16 0.35837 0.93358
    outer loop
      vertex 19.9995 14.2202 17.7406
      vertex 0.0005 14.2202 17.7406
      vertex 19.9995 13.9271 17.8532
    endloop
  endfacet
  facet normal -2.14479e-16 0.258818 0.965926
    outer loop
      vertex 0.0005 13.9271 17.8532
      vertex 0.0005 13.6237 17.9344
      vertex 19.9995 13.6237 17.9344
    endloop
  endfacet
  facet normal -2.14479e-16 0.258818 0.965926
    outer loop
      vertex 19.9995 13.9271 17.8532
      vertex 0.0005 13.9271 17.8532
      vertex 19.9995 13.6237 17.9344
    endloop
  endfacet
  facet normal -2.19311e-16 0.156435 0.987688
    outer loop
      vertex 0.0005 13.6237 17.9344
      vertex 0.0005 13.3136 17.9836
      vertex 19.9995 13.3136 17.9836
    endloop
  endfacet
  facet normal -2.19311e-16 0.156435 0.987688
    outer loop
      vertex 19.9995 13.6237 17.9344
      vertex 0.0005 13.6237 17.9344
      vertex 19.9995 13.3136 17.9836
    endloop
  endfacet
  facet normal -2.2174e-16 0.052335 0.99863
    outer loop
      vertex 0.0005 13.3136 17.9836
      vertex 0.0005 13 18
      vertex 19.9995 13 18
    endloop
  endfacet
  facet normal -2.2174e-16 0.052335 0.99863
    outer loop
      vertex 19.9995 13.3136 17.9836
      vertex 0.0005 13.3136 17.9836
      vertex 19.9995 13 18
    endloop
  endfacet
  facet normal -2.22045e-16 0 1
    outer loop
      vertex 2.4995 -0.5 18
      vertex 0.0005 -3.2 18
      vertex 19.9995 -3.2 18
    endloop
  endfacet
  facet normal -2.22045e-16 0 1
    outer loop
      vertex 7.4995 -0.5 18
      vertex 2.4995 -0.5 18
      vertex 19.9995 -3.2 18
    endloop
  endfacet
  facet normal -2.22045e-16 0 1
    outer loop
      vertex 0.0005 13 18
      vertex 0.0005 -3.2 18
      vertex 2.4995 -0.5 18
    endloop
  endfacet
  facet normal -2.22045e-16 0 1
    outer loop
      vertex 19.9995 13 18
      vertex 0.0005 13 18
      vertex 2.4995 12.5 18
    endloop
  endfacet
  facet normal -2.22045e-16 0 1
    outer loop
      vertex 19.9995 13 18
      vertex 2.4995 12.5 18
      vertex 7.4995 12.5 18
    endloop
  endfacet
  facet normal -2.22045e-16 0 1
    outer loop
      vertex 11.4995 -0.5 18
      vertex 7.4995 -0.5 18
      vertex 19.9995 -3.2 18
    endloop
  endfacet
  facet normal -2.22045e-16 0 1
    outer loop
      vertex 16.4995 -0.5 18
      vertex 11.4995 -0.5 18
      vertex 19.9995 -3.2 18
    endloop
  endfacet
  facet normal -2.22045e-16 0 1
    outer loop
      vertex 7.4995 12.5 18
      vertex 7.4995 -0.5 18
      vertex 11.4995 -0.5 18
    endloop
  endfacet
  facet normal -2.22045e-16 0 1
    outer loop
      vertex 19.9995 13 18
      vertex 7.4995 12.5 18
      vertex 11.4995 12.5 18
    endloop
  endfacet
  facet normal -2.22045e-16 0 1
    outer loop
      vertex 19.9995 13 18
      vertex 16.4995 12.5 18
      vertex 19.9995 -3.2 18
    endloop
  endfacet
  facet normal -2.22045e-16 0 1
    outer loop
      vertex 19.9995 13 18
      vertex 11.4995 12.5 18
      vertex 16.4995 12.5 18
    endloop
  endfacet
  facet normal -2.22045e-16 0 1
    outer loop
      vertex 16.4995 12.5 18
      vertex 16.4995 -0.5 18
      vertex 19.9995 -3.2 18
    endloop
  endfacet
  facet normal -2.22045e-16 0 1
    outer loop
      vertex 11.4995 -0.5 18
      vertex 11.4995 12.5 18
      vertex 7.4995 12.5 18
    endloop
  endfacet
  facet normal -2.22045e-16 0 1
    outer loop
      vertex 2.4995 -0.5 18
      vertex 2.4995 12.5 18
      vertex 0.0005 13 18
    endloop
  endfacet
  facet normal 1 0 2.22045e-16
    outer loop
      vertex 19.9995 -3.2 10.41
      vertex 19.9995 -3.2 18.01
      vertex 19.9995 -3.59721 17.9892
    endloop
  endfacet
  facet normal 1 0 2.22045e-16
    outer loop
      vertex 19.9995 -4.37426 17.824
      vertex 19.9995 -3.2 10.41
      vertex 19.9995 -3.99006 17.927
    endloop
  endfacet
  facet normal 1 0 2.22045e-16
    outer loop
      vertex 19.9995 -3.99006 17.927
      vertex 19.9995 -3.2 10.41
      vertex 19.9995 -3.59721 17.9892
    endloop
  endfacet
  facet normal 1 0 2.22045e-16
    outer loop
      vertex 19.9995 -4.7456 17.6815
      vertex 19.9995 -3.2 10.41
      vertex 19.9995 -4.37426 17.824
    endloop
  endfacet
  facet normal 1 0 2.22045e-16
    outer loop
      vertex 19.9995 -5.1 17.5009
      vertex 19.9995 -3.2 10.41
      vertex 19.9995 -4.7456 17.6815
    endloop
  endfacet
  facet normal 1 0 2.22045e-16
    outer loop
      vertex 19.9995 -5.43358 17.2843
      vertex 19.9995 -3.2 10.41
      vertex 19.9995 -5.1 17.5009
    endloop
  endfacet
  facet normal 1 0 2.22045e-16
    outer loop
      vertex 19.9995 -5.7427 17.034
      vertex 19.9995 -3.2 10.41
      vertex 19.9995 -5.43358 17.2843
    endloop
  endfacet
  facet normal 1 0 2.22045e-16
    outer loop
      vertex 19.9995 -6.02395 16.7527
      vertex 19.9995 -3.2 10.41
      vertex 19.9995 -5.7427 17.034
    endloop
  endfacet
  facet normal 1 0 2.22045e-16
    outer loop
      vertex 19.9995 -6.27426 16.4436
      vertex 19.9995 -3.2 10.41
      vertex 19.9995 -6.02395 16.7527
    endloop
  endfacet
  facet normal 1 0 2.22045e-16
    outer loop
      vertex 19.9995 -6.4909 16.11
      vertex 19.9995 -3.2 10.41
      vertex 19.9995 -6.27426 16.4436
    endloop
  endfacet
  facet normal 1 0 2.22045e-16
    outer loop
      vertex 19.9995 -6.67147 15.7556
      vertex 19.9995 -3.2 10.41
      vertex 19.9995 -6.4909 16.11
    endloop
  endfacet
  facet normal 1 0 2.22045e-16
    outer loop
      vertex 19.9995 -6.81401 15.3843
      vertex 19.9995 -3.2 10.41
      vertex 19.9995 -6.67147 15.7556
    endloop
  endfacet
  facet normal 1 0 2.22045e-16
    outer loop
      vertex 19.9995 -6.91696 15.0001
      vertex 19.9995 -3.2 10.41
      vertex 19.9995 -6.81401 15.3843
    endloop
  endfacet
  facet normal 1 0 2.22045e-16
    outer loop
      vertex 19.9995 -6.97918 14.6072
      vertex 19.9995 -3.2 10.41
      vertex 19.9995 -6.91696 15.0001
    endloop
  endfacet
  facet normal 1 0 2.22045e-16
    outer loop
      vertex 19.9995 -7 14.21
      vertex 19.9995 -3.2 10.41
      vertex 19.9995 -6.97918 14.6072
    endloop
  endfacet
  facet normal 1 0 2.22045e-16
    outer loop
      vertex 19.9995 -6.97918 13.8128
      vertex 19.9995 -3.2 10.41
      vertex 19.9995 -7 14.21
    endloop
  endfacet
  facet normal 1 0 2.22045e-16
    outer loop
      vertex 19.9995 -6.91696 13.4199
      vertex 19.9995 -3.2 10.41
      vertex 19.9995 -6.97918 13.8128
    endloop
  endfacet
  facet normal 1 0 2.22045e-16
    outer loop
      vertex 19.9995 -6.81401 13.0357
      vertex 19.9995 -3.2 10.41
      vertex 19.9995 -6.91696 13.4199
    endloop
  endfacet
  facet normal 1 0 2.22045e-16
    outer loop
      vertex 19.9995 -6.67147 12.6644
      vertex 19.9995 -3.2 10.41
      vertex 19.9995 -6.81401 13.0357
    endloop
  endfacet
  facet normal 1 0 2.22045e-16
    outer loop
      vertex 19.9995 -6.4909 12.31
      vertex 19.9995 -3.2 10.41
      vertex 19.9995 -6.67147 12.6644
    endloop
  endfacet
  facet normal 1 0 2.22045e-16
    outer loop
      vertex 19.9995 -6.27426 11.9764
      vertex 19.9995 -3.2 10.41
      vertex 19.9995 -6.4909 12.31
    endloop
  endfacet
  facet normal 1 0 2.22045e-16
    outer loop
      vertex 19.9995 -6.02395 11.6673
      vertex 19.9995 -3.2 10.41
      vertex 19.9995 -6.27426 11.9764
    endloop
  endfacet
  facet normal 1 0 2.22045e-16
    outer loop
      vertex 19.9995 -5.7427 11.3861
      vertex 19.9995 -3.2 10.41
      vertex 19.9995 -6.02395 11.6673
    endloop
  endfacet
  facet normal 1 0 2.22045e-16
    outer loop
      vertex 19.9995 -5.43358 11.1357
      vertex 19.9995 -3.2 10.41
      vertex 19.9995 -5.7427 11.3861
    endloop
  endfacet
  facet normal 1 0 2.22045e-16
    outer loop
      vertex 19.9995 -5.1 10.9191
      vertex 19.9995 -3.2 10.41
      vertex 19.9995 -5.43358 11.1357
    endloop
  endfacet
  facet normal 1 0 2.22045e-16
    outer loop
      vertex 19.9995 -4.7456 10.7385
      vertex 19.9995 -3.2 10.41
      vertex 19.9995 -5.1 10.9191
    endloop
  endfacet
  facet normal 1 0 2.22045e-16
    outer loop
      vertex 19.9995 -4.37426 10.596
      vertex 19.9995 -3.2 10.41
      vertex 19.9995 -4.7456 10.7385
    endloop
  endfacet
  facet normal 1 0 2.22045e-16
    outer loop
      vertex 19.9995 -3.99006 10.493
      vertex 19.9995 -3.2 10.41
      vertex 19.9995 -4.37426 10.596
    endloop
  endfacet
  facet normal 1 0 2.22045e-16
    outer loop
      vertex 19.9995 -3.59721 10.4308
      vertex 19.9995 -3.2 10.41
      vertex 19.9995 -3.99006 10.493
    endloop
  endfacet
  facet normal -1 0 0
    outer loop
      vertex 15.4995 -6.99101 14.3816
      vertex 15.4995 -7 14.21
      vertex 15.4995 -15.5 5.87258
    endloop
  endfacet
  facet normal -1 0 0
    outer loop
      vertex 15.4995 -15.5 5.87258
      vertex 15.4995 -7 14.21
      vertex 15.4995 -6.97918 13.8128
    endloop
  endfacet
  facet normal -1 0 0
    outer loop
      vertex 15.4995 -6.97918 13.8128
      vertex 15.4995 -6.91696 13.4199
      vertex 15.4995 -15.5 5.87258
    endloop
  endfacet
  facet normal -1 0 0
    outer loop
      vertex 15.4995 -6.91696 13.4199
      vertex 15.4995 -6.81401 13.0357
      vertex 15.4995 -15.5 5.87258
    endloop
  endfacet
  facet normal -1 0 0
    outer loop
      vertex 15.4995 -6.81401 13.0357
      vertex 15.4995 -6.67147 12.6644
      vertex 15.4995 -15.5 5.87258
    endloop
  endfacet
  facet normal -1 0 0
    outer loop
      vertex 15.4995 -6.67147 12.6644
      vertex 15.4995 -6.5 12.3279
      vertex 15.4995 -15.5 5.87258
    endloop
  endfacet
  facet normal -1 0 0
    outer loop
      vertex 15.4995 -15.5 5.87258
      vertex 15.4995 -6.5 12.3279
      vertex 15.4995 -6.5 3
    endloop
  endfacet
  facet normal -1 0 0
    outer loop
      vertex 15.4995 -15.5 5.87258
      vertex 15.4995 -6.5 3
      vertex 15.4995 -15.5 3
    endloop
  endfacet
  facet normal 1.1621e-17 -0.99863 -0.0523365
    outer loop
      vertex 15.4995 -7 14.21
      vertex 14.4995 -7 14.21
      vertex 14.4995 -6.97918 13.8128
    endloop
  endfacet
  facet normal 1.1621e-17 -0.99863 -0.0523365
    outer loop
      vertex 15.4995 -6.97918 13.8128
      vertex 15.4995 -7 14.21
      vertex 14.4995 -6.97918 13.8128
    endloop
  endfacet
  facet normal 1 0 0
    outer loop
      vertex 14.4995 -6.91696 13.4199
      vertex 14.4995 -6.97918 13.8128
      vertex 14.4995 -6.5 3
    endloop
  endfacet
  facet normal 1 0 0
    outer loop
      vertex 14.4995 -6.5 3
      vertex 14.4995 -6.5 12.3279
      vertex 14.4995 -6.67147 12.6644
    endloop
  endfacet
  facet normal 1 0 0
    outer loop
      vertex 14.4995 -6.97918 13.8128
      vertex 14.4995 -7 14.21
      vertex 14.4995 -6.5 3
    endloop
  endfacet
  facet normal 1 0 0
    outer loop
      vertex 14.4995 -6.81401 13.0357
      vertex 14.4995 -6.5 3
      vertex 14.4995 -6.67147 12.6644
    endloop
  endfacet
  facet normal 1 0 0
    outer loop
      vertex 14.4995 -6.81401 13.0357
      vertex 14.4995 -6.91696 13.4199
      vertex 14.4995 -6.5 3
    endloop
  endfacet
  facet normal 1 0 0
    outer loop
      vertex 14.4995 -7 14.21
      vertex 14.4995 -15.5 5.87258
      vertex 14.4995 -6.5 3
    endloop
  endfacet
  facet normal 1 0 0
    outer loop
      vertex 14.4995 -6.99101 14.3816
      vertex 14.4995 -15.5 5.87258
      vertex 14.4995 -7 14.21
    endloop
  endfacet
  facet normal 1 0 0
    outer loop
      vertex 14.4995 -15.5 5.87258
      vertex 14.4995 -15.5 3
      vertex 14.4995 -6.5 3
    endloop
  endfacet
  facet normal -1 0 0
    outer loop
      vertex 11.4995 -6.99101 14.3816
      vertex 11.4995 -7 14.21
      vertex 11.4995 -15.5 5.87258
    endloop
  endfacet
  facet normal -1 0 0
    outer loop
      vertex 11.4995 -15.5 5.87258
      vertex 11.4995 -7 14.21
      vertex 11.4995 -6.97918 13.8128
    endloop
  endfacet
  facet normal -1 0 0
    outer loop
      vertex 11.4995 -6.97918 13.8128
      vertex 11.4995 -6.91696 13.4199
      vertex 11.4995 -15.5 5.87258
    endloop
  endfacet
  facet normal -1 0 0
    outer loop
      vertex 11.4995 -6.91696 13.4199
      vertex 11.4995 -6.81401 13.0357
      vertex 11.4995 -15.5 5.87258
    endloop
  endfacet
  facet normal -1 0 0
    outer loop
      vertex 11.4995 -6.81401 13.0357
      vertex 11.4995 -6.67147 12.6644
      vertex 11.4995 -15.5 5.87258
    endloop
  endfacet
  facet normal -1 0 0
    outer loop
      vertex 11.4995 -6.67147 12.6644
      vertex 11.4995 -6.5 12.3279
      vertex 11.4995 -15.5 5.87258
    endloop
  endfacet
  facet normal -1 0 0
    outer loop
      vertex 11.4995 -15.5 5.87258
      vertex 11.4995 -6.5 12.3279
      vertex 11.4995 -6.5 3
    endloop
  endfacet
  facet normal -1 0 0
    outer loop
      vertex 11.4995 -15.5 5.87258
      vertex 11.4995 -6.5 3
      vertex 11.4995 -15.5 3
    endloop
  endfacet
  facet normal 1.1621e-17 -0.99863 -0.0523365
    outer loop
      vertex 11.4995 -7 14.21
      vertex 10.4995 -7 14.21
      vertex 10.4995 -6.97918 13.8128
    endloop
  endfacet
  facet normal 1.1621e-17 -0.99863 -0.0523365
    outer loop
      vertex 11.4995 -6.97918 13.8128
      vertex 11.4995 -7 14.21
      vertex 10.4995 -6.97918 13.8128
    endloop
  endfacet
  facet normal 1 0 0
    outer loop
      vertex 10.4995 -6.91696 13.4199
      vertex 10.4995 -6.97918 13.8128
      vertex 10.4995 -6.5 3
    endloop
  endfacet
  facet normal 1 0 0
    outer loop
      vertex 10.4995 -6.5 3
      vertex 10.4995 -6.5 12.3279
      vertex 10.4995 -6.67147 12.6644
    endloop
  endfacet
  facet normal 1 0 0
    outer loop
      vertex 10.4995 -6.97918 13.8128
      vertex 10.4995 -7 14.21
      vertex 10.4995 -6.5 3
    endloop
  endfacet
  facet normal 1 0 0
    outer loop
      vertex 10.4995 -6.81401 13.0357
      vertex 10.4995 -6.5 3
      vertex 10.4995 -6.67147 12.6644
    endloop
  endfacet
  facet normal 1 0 0
    outer loop
      vertex 10.4995 -6.81401 13.0357
      vertex 10.4995 -6.91696 13.4199
      vertex 10.4995 -6.5 3
    endloop
  endfacet
  facet normal 1 0 0
    outer loop
      vertex 10.4995 -7 14.21
      vertex 10.4995 -15.5 5.87258
      vertex 10.4995 -6.5 3
    endloop
  endfacet
  facet normal 1 0 0
    outer loop
      vertex 10.4995 -6.99101 14.3816
      vertex 10.4995 -15.5 5.87258
      vertex 10.4995 -7 14.21
    endloop
  endfacet
  facet normal 1 0 0
    outer loop
      vertex 10.4995 -15.5 5.87258
      vertex 10.4995 -15.5 3
      vertex 10.4995 -6.5 3
    endloop
  endfacet
  facet normal -1 0 0
    outer loop
      vertex 7.4995 -6.99101 14.3816
      vertex 7.4995 -7 14.21
      vertex 7.4995 -15.5 5.87258
    endloop
  endfacet
  facet normal -1 0 0
    outer loop
      vertex 7.4995 -15.5 5.87258
      vertex 7.4995 -7 14.21
      vertex 7.4995 -6.97918 13.8128
    endloop
  endfacet
  facet normal -1 0 0
    outer loop
      vertex 7.4995 -6.97918 13.8128
      vertex 7.4995 -6.91696 13.4199
      vertex 7.4995 -15.5 5.87258
    endloop
  endfacet
  facet normal -1 0 0
    outer loop
      vertex 7.4995 -6.91696 13.4199
      vertex 7.4995 -6.81401 13.0357
      vertex 7.4995 -15.5 5.87258
    endloop
  endfacet
  facet normal -1 0 0
    outer loop
      vertex 7.4995 -6.81401 13.0357
      vertex 7.4995 -6.67147 12.6644
      vertex 7.4995 -15.5 5.87258
    endloop
  endfacet
  facet normal -1 0 0
    outer loop
      vertex 7.4995 -6.67147 12.6644
      vertex 7.4995 -6.5 12.3279
      vertex 7.4995 -15.5 5.87258
    endloop
  endfacet
  facet normal -1 0 0
    outer loop
      vertex 7.4995 -15.5 5.87258
      vertex 7.4995 -6.5 12.3279
      vertex 7.4995 -6.5 3
    endloop
  endfacet
  facet normal -1 0 0
    outer loop
      vertex 7.4995 -15.5 5.87258
      vertex 7.4995 -6.5 3
      vertex 7.4995 -15.5 3
    endloop
  endfacet
  facet normal 1.1621e-17 -0.99863 -0.0523365
    outer loop
      vertex 7.4995 -7 14.21
      vertex 6.4995 -7 14.21
      vertex 6.4995 -6.97918 13.8128
    endloop
  endfacet
  facet normal 1.1621e-17 -0.99863 -0.0523365
    outer loop
      vertex 7.4995 -6.97918 13.8128
      vertex 7.4995 -7 14.21
      vertex 6.4995 -6.97918 13.8128
    endloop
  endfacet
  facet normal 1 0 0
    outer loop
      vertex 6.4995 -6.91696 13.4199
      vertex 6.4995 -6.97918 13.8128
      vertex 6.4995 -6.5 3
    endloop
  endfacet
  facet normal 1 0 0
    outer loop
      vertex 6.4995 -6.5 3
      vertex 6.4995 -6.5 12.3279
      vertex 6.4995 -6.67147 12.6644
    endloop
  endfacet
  facet normal 1 0 0
    outer loop
      vertex 6.4995 -6.97918 13.8128
      vertex 6.4995 -7 14.21
      vertex 6.4995 -6.5 3
    endloop
  endfacet
  facet normal 1 0 0
    outer loop
      vertex 6.4995 -6.81401 13.0357
      vertex 6.4995 -6.5 3
      vertex 6.4995 -6.67147 12.6644
    endloop
  endfacet
  facet normal 1 0 0
    outer loop
      vertex 6.4995 -6.81401 13.0357
      vertex 6.4995 -6.91696 13.4199
      vertex 6.4995 -6.5 3
    endloop
  endfacet
  facet normal 1 0 0
    outer loop
      vertex 6.4995 -7 14.21
      vertex 6.4995 -15.5 5.87258
      vertex 6.4995 -6.5 3
    endloop
  endfacet
  facet normal 1 0 0
    outer loop
      vertex 6.4995 -6.99101 14.3816
      vertex 6.4995 -15.5 5.87258
      vertex 6.4995 -7 14.21
    endloop
  endfacet
  facet normal 1 0 0
    outer loop
      vertex 6.4995 -15.5 5.87258
      vertex 6.4995 -15.5 3
      vertex 6.4995 -6.5 3
    endloop
  endfacet
  facet normal -1 0 0
    outer loop
      vertex 3.4995 -6.99101 14.3816
      vertex 3.4995 -7 14.21
      vertex 3.4995 -15.5 5.87258
    endloop
  endfacet
  facet normal -1 0 0
    outer loop
      vertex 3.4995 -15.5 5.87258
      vertex 3.4995 -7 14.21
      vertex 3.4995 -6.97918 13.8128
    endloop
  endfacet
  facet normal -1 0 0
    outer loop
      vertex 3.4995 -6.97918 13.8128
      vertex 3.4995 -6.91696 13.4199
      vertex 3.4995 -15.5 5.87258
    endloop
  endfacet
  facet normal -1 0 0
    outer loop
      vertex 3.4995 -6.91696 13.4199
      vertex 3.4995 -6.81401 13.0357
      vertex 3.4995 -15.5 5.87258
    endloop
  endfacet
  facet normal -1 0 0
    outer loop
      vertex 3.4995 -6.81401 13.0357
      vertex 3.4995 -6.67147 12.6644
      vertex 3.4995 -15.5 5.87258
    endloop
  endfacet
  facet normal -1 0 0
    outer loop
      vertex 3.4995 -6.67147 12.6644
      vertex 3.4995 -6.5 12.3279
      vertex 3.4995 -15.5 5.87258
    endloop
  endfacet
  facet normal -1 0 0
    outer loop
      vertex 3.4995 -15.5 5.87258
      vertex 3.4995 -6.5 12.3279
      vertex 3.4995 -6.5 3
    endloop
  endfacet
  facet normal -1 0 0
    outer loop
      vertex 3.4995 -15.5 5.87258
      vertex 3.4995 -6.5 3
      vertex 3.4995 -15.5 3
    endloop
  endfacet
  facet normal 1.1621e-17 -0.99863 -0.0523365
    outer loop
      vertex 3.4995 -7 14.21
      vertex 2.4995 -7 14.21
      vertex 2.4995 -6.97918 13.8128
    endloop
  endfacet
  facet normal 1.1621e-17 -0.99863 -0.0523365
    outer loop
      vertex 3.4995 -6.97918 13.8128
      vertex 3.4995 -7 14.21
      vertex 2.4995 -6.97918 13.8128
    endloop
  endfacet
  facet normal 1 0 0
    outer loop
      vertex 2.4995 -6.91696 13.4199
      vertex 2.4995 -6.97918 13.8128
      vertex 2.4995 -6.5 3
    endloop
  endfacet
  facet normal 1 0 0
    outer loop
      vertex 2.4995 -6.5 3
      vertex 2.4995 -6.5 12.3279
      vertex 2.4995 -6.67147 12.6644
    endloop
  endfacet
  facet normal 1 0 0
    outer loop
      vertex 2.4995 -6.97918 13.8128
      vertex 2.4995 -7 14.21
      vertex 2.4995 -6.5 3
    endloop
  endfacet
  facet normal 1 0 0
    outer loop
      vertex 2.4995 -6.81401 13.0357
      vertex 2.4995 -6.5 3
      vertex 2.4995 -6.67147 12.6644
    endloop
  endfacet
  facet normal 1 0 0
    outer loop
      vertex 2.4995 -6.81401 13.0357
      vertex 2.4995 -6.91696 13.4199
      vertex 2.4995 -6.5 3
    endloop
  endfacet
  facet normal 1 0 0
    outer loop
      vertex 2.4995 -7 14.21
      vertex 2.4995 -15.5 5.87258
      vertex 2.4995 -6.5 3
    endloop
  endfacet
  facet normal 1 0 0
    outer loop
      vertex 2.4995 -6.99101 14.3816
      vertex 2.4995 -15.5 5.87258
      vertex 2.4995 -7 14.21
    endloop
  endfacet
  facet normal 1 0 0
    outer loop
      vertex 2.4995 -15.5 5.87258
      vertex 2.4995 -15.5 3
      vertex 2.4995 -6.5 3
    endloop
  endfacet
  facet normal 0 1 0
    outer loop
      vertex 3.4995 -15.5 5.87258
      vertex 3.4995 -15.5 3
      vertex 2.4995 -15.5 5.87258
    endloop
  endfacet
  facet normal 0 1 0
    outer loop
      vertex 2.4995 -15.5 5.87258
      vertex 3.4995 -15.5 3
      vertex 2.4995 -15.5 3
    endloop
  endfacet
  facet normal 0 1 0
    outer loop
      vertex 7.4995 -15.5 5.87258
      vertex 7.4995 -15.5 3
      vertex 6.4995 -15.5 5.87258
    endloop
  endfacet
  facet normal 0 1 0
    outer loop
      vertex 6.4995 -15.5 5.87258
      vertex 7.4995 -15.5 3
      vertex 6.4995 -15.5 3
    endloop
  endfacet
  facet normal 0 1 0
    outer loop
      vertex 11.4995 -15.5 5.87258
      vertex 11.4995 -15.5 3
      vertex 10.4995 -15.5 5.87258
    endloop
  endfacet
  facet normal 0 1 0
    outer loop
      vertex 10.4995 -15.5 5.87258
      vertex 11.4995 -15.5 3
      vertex 10.4995 -15.5 3
    endloop
  endfacet
  facet normal 0 1 0
    outer loop
      vertex 15.4995 -15.5 5.87258
      vertex 15.4995 -15.5 3
      vertex 14.4995 -15.5 5.87258
    endloop
  endfacet
  facet normal 0 1 0
    outer loop
      vertex 14.4995 -15.5 5.87258
      vertex 15.4995 -15.5 3
      vertex 14.4995 -15.5 3
    endloop
  endfacet
  facet normal 1 0 0
    outer loop
      vertex 2.4995 12.5 4.5
      vertex 2.4995 12.5 18
      vertex 2.4995 -0.5 18
    endloop
  endfacet
  facet normal 1 0 0
    outer loop
      vertex 2.4995 -0.5 4.5
      vertex 2.4995 12.5 4.5
      vertex 2.4995 -0.5 18
    endloop
  endfacet
  facet normal 0 1 0
    outer loop
      vertex 7.4995 -0.5 18
      vertex 7.4995 -0.5 4.5
      vertex 2.4995 -0.5 18
    endloop
  endfacet
  facet normal 0 1 0
    outer loop
      vertex 2.4995 -0.5 18
      vertex 7.4995 -0.5 4.5
      vertex 2.4995 -0.5 4.5
    endloop
  endfacet
  facet normal -1 0 0
    outer loop
      vertex 7.4995 12.5 18
      vertex 7.4995 12.5 4.5
      vertex 7.4995 -0.5 18
    endloop
  endfacet
  facet normal -1 0 0
    outer loop
      vertex 7.4995 -0.5 18
      vertex 7.4995 12.5 4.5
      vertex 7.4995 -0.5 4.5
    endloop
  endfacet
  facet normal 0 -1 0
    outer loop
      vertex 7.4995 12.5 4.5
      vertex 7.4995 12.5 18
      vertex 2.4995 12.5 18
    endloop
  endfacet
  facet normal 0 -1 0
    outer loop
      vertex 2.4995 12.5 4.5
      vertex 7.4995 12.5 4.5
      vertex 2.4995 12.5 18
    endloop
  endfacet
  facet normal 1 0 0
    outer loop
      vertex 11.4995 12.5 4.5
      vertex 11.4995 12.5 18
      vertex 11.4995 -0.5 18
    endloop
  endfacet
  facet normal 1 0 0
    outer loop
      vertex 11.4995 -0.5 4.5
      vertex 11.4995 12.5 4.5
      vertex 11.4995 -0.5 18
    endloop
  endfacet
  facet normal 0 1 0
    outer loop
      vertex 16.4995 -0.5 18
      vertex 16.4995 -0.5 4.5
      vertex 11.4995 -0.5 18
    endloop
  endfacet
  facet normal 0 1 0
    outer loop
      vertex 11.4995 -0.5 18
      vertex 16.4995 -0.5 4.5
      vertex 11.4995 -0.5 4.5
    endloop
  endfacet
  facet normal -1 0 0
    outer loop
      vertex 16.4995 12.5 18
      vertex 16.4995 12.5 4.5
      vertex 16.4995 -0.5 18
    endloop
  endfacet
  facet normal -1 0 0
    outer loop
      vertex 16.4995 -0.5 18
      vertex 16.4995 12.5 4.5
      vertex 16.4995 -0.5 4.5
    endloop
  endfacet
  facet normal 0 -1 0
    outer loop
      vertex 16.4995 12.5 4.5
      vertex 16.4995 12.5 18
      vertex 11.4995 12.5 18
    endloop
  endfacet
  facet normal 0 -1 0
    outer loop
      vertex 11.4995 12.5 4.5
      vertex 16.4995 12.5 4.5
      vertex 11.4995 12.5 18
    endloop
  endfacet
  facet normal 0 0 1
    outer loop
      vertex 15.4995 -15.5 3
      vertex 15.4995 -6.5 3
      vertex 14.4995 -6.5 3
    endloop
  endfacet
  facet normal 0 0 1
    outer loop
      vertex 14.4995 -15.5 3
      vertex 15.4995 -15.5 3
      vertex 14.4995 -6.5 3
    endloop
  endfacet
  facet normal 0 -1 0
    outer loop
      vertex 15.4995 -6.5 3
      vertex 15.4995 -6.5 12.3279
      vertex 14.4995 -6.5 12.3279
    endloop
  endfacet
  facet normal 0 -1 0
    outer loop
      vertex 14.4995 -6.5 3
      vertex 15.4995 -6.5 3
      vertex 14.4995 -6.5 12.3279
    endloop
  endfacet
  facet normal 1.00806e-16 -0.891007 -0.45399
    outer loop
      vertex 15.4995 -6.67147 12.6644
      vertex 14.4995 -6.67147 12.6644
      vertex 14.4995 -6.5 12.3279
    endloop
  endfacet
  facet normal 1.00806e-16 -0.891007 -0.45399
    outer loop
      vertex 15.4995 -6.5 12.3279
      vertex 15.4995 -6.67147 12.6644
      vertex 14.4995 -6.5 12.3279
    endloop
  endfacet
  facet normal 7.95738e-17 -0.93358 -0.358368
    outer loop
      vertex 15.4995 -6.81401 13.0357
      vertex 14.4995 -6.81401 13.0357
      vertex 14.4995 -6.67147 12.6644
    endloop
  endfacet
  facet normal 7.95738e-17 -0.93358 -0.358368
    outer loop
      vertex 15.4995 -6.67147 12.6644
      vertex 15.4995 -6.81401 13.0357
      vertex 14.4995 -6.67147 12.6644
    endloop
  endfacet
  facet normal 5.74692e-17 -0.965926 -0.258818
    outer loop
      vertex 15.4995 -6.91696 13.4199
      vertex 14.4995 -6.91696 13.4199
      vertex 14.4995 -6.81401 13.0357
    endloop
  endfacet
  facet normal 5.74692e-17 -0.965926 -0.258818
    outer loop
      vertex 15.4995 -6.81401 13.0357
      vertex 15.4995 -6.91696 13.4199
      vertex 14.4995 -6.81401 13.0357
    endloop
  endfacet
  facet normal 3.47353e-17 -0.987688 -0.156434
    outer loop
      vertex 15.4995 -6.97918 13.8128
      vertex 14.4995 -6.97918 13.8128
      vertex 14.4995 -6.91696 13.4199
    endloop
  endfacet
  facet normal 3.47353e-17 -0.987688 -0.156434
    outer loop
      vertex 15.4995 -6.91696 13.4199
      vertex 15.4995 -6.97918 13.8128
      vertex 14.4995 -6.91696 13.4199
    endloop
  endfacet
  facet normal 0 0 1
    outer loop
      vertex 11.4995 -15.5 3
      vertex 11.4995 -6.5 3
      vertex 10.4995 -6.5 3
    endloop
  endfacet
  facet normal 0 0 1
    outer loop
      vertex 10.4995 -15.5 3
      vertex 11.4995 -15.5 3
      vertex 10.4995 -6.5 3
    endloop
  endfacet
  facet normal 0 -1 0
    outer loop
      vertex 11.4995 -6.5 3
      vertex 11.4995 -6.5 12.3279
      vertex 10.4995 -6.5 12.3279
    endloop
  endfacet
  facet normal 0 -1 0
    outer loop
      vertex 10.4995 -6.5 3
      vertex 11.4995 -6.5 3
      vertex 10.4995 -6.5 12.3279
    endloop
  endfacet
  facet normal 1.00806e-16 -0.891007 -0.45399
    outer loop
      vertex 11.4995 -6.67147 12.6644
      vertex 10.4995 -6.67147 12.6644
      vertex 10.4995 -6.5 12.3279
    endloop
  endfacet
  facet normal 1.00806e-16 -0.891007 -0.45399
    outer loop
      vertex 11.4995 -6.5 12.3279
      vertex 11.4995 -6.67147 12.6644
      vertex 10.4995 -6.5 12.3279
    endloop
  endfacet
  facet normal 7.95738e-17 -0.93358 -0.358368
    outer loop
      vertex 11.4995 -6.81401 13.0357
      vertex 10.4995 -6.81401 13.0357
      vertex 10.4995 -6.67147 12.6644
    endloop
  endfacet
  facet normal 7.95738e-17 -0.93358 -0.358368
    outer loop
      vertex 11.4995 -6.67147 12.6644
      vertex 11.4995 -6.81401 13.0357
      vertex 10.4995 -6.67147 12.6644
    endloop
  endfacet
  facet normal 5.74692e-17 -0.965926 -0.258818
    outer loop
      vertex 11.4995 -6.91696 13.4199
      vertex 10.4995 -6.91696 13.4199
      vertex 10.4995 -6.81401 13.0357
    endloop
  endfacet
  facet normal 5.74692e-17 -0.965926 -0.258818
    outer loop
      vertex 11.4995 -6.81401 13.0357
      vertex 11.4995 -6.91696 13.4199
      vertex 10.4995 -6.81401 13.0357
    endloop
  endfacet
  facet normal 3.47353e-17 -0.987688 -0.156434
    outer loop
      vertex 11.4995 -6.97918 13.8128
      vertex 10.4995 -6.97918 13.8128
      vertex 10.4995 -6.91696 13.4199
    endloop
  endfacet
  facet normal 3.47353e-17 -0.987688 -0.156434
    outer loop
      vertex 11.4995 -6.91696 13.4199
      vertex 11.4995 -6.97918 13.8128
      vertex 10.4995 -6.91696 13.4199
    endloop
  endfacet
  facet normal 0 0 1
    outer loop
      vertex 7.4995 -15.5 3
      vertex 7.4995 -6.5 3
      vertex 6.4995 -6.5 3
    endloop
  endfacet
  facet normal 0 0 1
    outer loop
      vertex 6.4995 -15.5 3
      vertex 7.4995 -15.5 3
      vertex 6.4995 -6.5 3
    endloop
  endfacet
  facet normal 0 -1 0
    outer loop
      vertex 7.4995 -6.5 3
      vertex 7.4995 -6.5 12.3279
      vertex 6.4995 -6.5 12.3279
    endloop
  endfacet
  facet normal 0 -1 0
    outer loop
      vertex 6.4995 -6.5 3
      vertex 7.4995 -6.5 3
      vertex 6.4995 -6.5 12.3279
    endloop
  endfacet
  facet normal 1.00806e-16 -0.891007 -0.45399
    outer loop
      vertex 7.4995 -6.67147 12.6644
      vertex 6.4995 -6.67147 12.6644
      vertex 6.4995 -6.5 12.3279
    endloop
  endfacet
  facet normal 1.00806e-16 -0.891007 -0.45399
    outer loop
      vertex 7.4995 -6.5 12.3279
      vertex 7.4995 -6.67147 12.6644
      vertex 6.4995 -6.5 12.3279
    endloop
  endfacet
  facet normal 7.95738e-17 -0.93358 -0.358368
    outer loop
      vertex 7.4995 -6.81401 13.0357
      vertex 6.4995 -6.81401 13.0357
      vertex 6.4995 -6.67147 12.6644
    endloop
  endfacet
  facet normal 7.95738e-17 -0.93358 -0.358368
    outer loop
      vertex 7.4995 -6.67147 12.6644
      vertex 7.4995 -6.81401 13.0357
      vertex 6.4995 -6.67147 12.6644
    endloop
  endfacet
  facet normal 5.74692e-17 -0.965926 -0.258818
    outer loop
      vertex 7.4995 -6.91696 13.4199
      vertex 6.4995 -6.91696 13.4199
      vertex 6.4995 -6.81401 13.0357
    endloop
  endfacet
  facet normal 5.74692e-17 -0.965926 -0.258818
    outer loop
      vertex 7.4995 -6.81401 13.0357
      vertex 7.4995 -6.91696 13.4199
      vertex 6.4995 -6.81401 13.0357
    endloop
  endfacet
  facet normal 3.47353e-17 -0.987688 -0.156434
    outer loop
      vertex 7.4995 -6.97918 13.8128
      vertex 6.4995 -6.97918 13.8128
      vertex 6.4995 -6.91696 13.4199
    endloop
  endfacet
  facet normal 3.47353e-17 -0.987688 -0.156434
    outer loop
      vertex 7.4995 -6.91696 13.4199
      vertex 7.4995 -6.97918 13.8128
      vertex 6.4995 -6.91696 13.4199
    endloop
  endfacet
  facet normal 0 0 1
    outer loop
      vertex 3.4995 -15.5 3
      vertex 3.4995 -6.5 3
      vertex 2.4995 -6.5 3
    endloop
  endfacet
  facet normal 0 0 1
    outer loop
      vertex 2.4995 -15.5 3
      vertex 3.4995 -15.5 3
      vertex 2.4995 -6.5 3
    endloop
  endfacet
  facet normal 0 -1 0
    outer loop
      vertex 3.4995 -6.5 3
      vertex 3.4995 -6.5 12.3279
      vertex 2.4995 -6.5 12.3279
    endloop
  endfacet
  facet normal 0 -1 0
    outer loop
      vertex 2.4995 -6.5 3
      vertex 3.4995 -6.5 3
      vertex 2.4995 -6.5 12.3279
    endloop
  endfacet
  facet normal 1.00806e-16 -0.891007 -0.45399
    outer loop
      vertex 3.4995 -6.67147 12.6644
      vertex 2.4995 -6.67147 12.6644
      vertex 2.4995 -6.5 12.3279
    endloop
  endfacet
  facet normal 1.00806e-16 -0.891007 -0.45399
    outer loop
      vertex 3.4995 -6.5 12.3279
      vertex 3.4995 -6.67147 12.6644
      vertex 2.4995 -6.5 12.3279
    endloop
  endfacet
  facet normal 7.95738e-17 -0.93358 -0.358368
    outer loop
      vertex 3.4995 -6.81401 13.0357
      vertex 2.4995 -6.81401 13.0357
      vertex 2.4995 -6.67147 12.6644
    endloop
  endfacet
  facet normal 7.95738e-17 -0.93358 -0.358368
    outer loop
      vertex 3.4995 -6.67147 12.6644
      vertex 3.4995 -6.81401 13.0357
      vertex 2.4995 -6.67147 12.6644
    endloop
  endfacet
  facet normal 5.74692e-17 -0.965926 -0.258818
    outer loop
      vertex 3.4995 -6.91696 13.4199
      vertex 2.4995 -6.91696 13.4199
      vertex 2.4995 -6.81401 13.0357
    endloop
  endfacet
  facet normal 5.74692e-17 -0.965926 -0.258818
    outer loop
      vertex 3.4995 -6.81401 13.0357
      vertex 3.4995 -6.91696 13.4199
      vertex 2.4995 -6.81401 13.0357
    endloop
  endfacet
  facet normal 3.47353e-17 -0.987688 -0.156434
    outer loop
      vertex 3.4995 -6.97918 13.8128
      vertex 2.4995 -6.97918 13.8128
      vertex 2.4995 -6.91696 13.4199
    endloop
  endfacet
  facet normal 3.47353e-17 -0.987688 -0.156434
    outer loop
      vertex 3.4995 -6.91696 13.4199
      vertex 3.4995 -6.97918 13.8128
      vertex 2.4995 -6.91696 13.4199
    endloop
  endfacet
  facet normal 0 0 1
    outer loop
      vertex 7.4995 -0.5 4.5
      vertex 7.4995 12.5 4.5
      vertex 2.4995 12.5 4.5
    endloop
  endfacet
  facet normal 0 0 1
    outer loop
      vertex 2.4995 -0.5 4.5
      vertex 7.4995 -0.5 4.5
      vertex 2.4995 12.5 4.5
    endloop
  endfacet
  facet normal 0 0 1
    outer loop
      vertex 16.4995 -0.5 4.5
      vertex 16.4995 12.5 4.5
      vertex 11.4995 12.5 4.5
    endloop
  endfacet
  facet normal 0 0 1
    outer loop
      vertex 11.4995 -0.5 4.5
      vertex 16.4995 -0.5 4.5
      vertex 11.4995 12.5 4.5
    endloop
  endfacet
endsolid OpenSCAD_Model
